<?xml version="1.0" encoding="utf-8"?>
<!-- Generator: Adobe Illustrator 25.2.3, SVG Export Plug-In . SVG Version: 6.00 Build 0)  -->
<svg version="1.1" id="Layer_1" xmlns="http://www.w3.org/2000/svg" xmlns:xlink="http://www.w3.org/1999/xlink" x="0px" y="0px"
	 viewBox="0 0 1162.7 1118.2" style="enable-background:new 0 0 1162.7 1118.2;" xml:space="preserve">
<style type="text/css">
	.st0{opacity:0.1;fill:#465675;}
	.st1{fill:#BCC7D3;}
	.st2{fill:url(#SVGID_1_);}
	.st3{opacity:0.5;fill:#ADC6DB;}
	.st4{fill:#1C2842;}
	.st5{fill:#465675;}
	.st6{fill:#373443;}
	.st7{fill:url(#SVGID_2_);}
	.st8{fill:#7998AD;}
	.st9{fill:url(#SVGID_3_);}
	.st10{fill:url(#SVGID_4_);}
	.st11{fill:#FFFFFF;}
	.st12{fill:#D7E9FA;}
	.st13{fill:#525B88;}
	.st14{fill:#55CECE;}
	.st15{opacity:0.1;fill:#343D5C;}
	.st16{fill:#73E9F0;}
	.st17{fill:url(#SVGID_5_);}
	.st18{fill:url(#SVGID_6_);}
	.st19{opacity:0.15;fill:#343D5C;}
	.st20{fill:#DD3542;}
	.st21{fill:#EB4B5A;}
	.st22{opacity:0.2;fill:#343D5C;}
	.st23{fill:#343D5C;}
	.st24{fill:#2F2A45;}
	.st25{clip-path:url(#XMLID_9_);}
	.st26{fill:#49CEC8;}
	.st27{clip-path:url(#XMLID_10_);}
	.st28{clip-path:url(#XMLID_10_);fill:#49CEC8;}
	.st29{clip-path:url(#XMLID_11_);}
	.st30{clip-path:url(#XMLID_12_);}
	.st31{clip-path:url(#XMLID_13_);}
	.st32{clip-path:url(#XMLID_14_);}
	.st33{clip-path:url(#XMLID_15_);}
	.st34{fill:#DE6207;}
	.st35{fill:url(#SVGID_7_);}
	.st36{fill:url(#SVGID_8_);}
	.st37{fill:url(#SVGID_9_);}
	.st38{fill:url(#SVGID_10_);}
	.st39{fill:#AFBBD1;}
	.st40{fill:#FEB510;}
	.st41{fill:url(#SVGID_11_);}
	.st42{opacity:0.35;fill:#FABE32;}
	.st43{fill:#0ACF83;}
	.st44{fill:#A259FF;}
	.st45{fill:#F24E1E;}
	.st46{fill:#FF7262;}
	.st47{fill:#1ABCFE;}
	.st48{opacity:0.3;fill:#343D5C;}
	.st49{fill:#3975FD;}
	.st50{fill:#76B6FE;}
</style>
<g>
	<path class="st0" d="M190.6,885.1l569.8-329.9c15.3-8.8,34.1-8.9,49.4,0l344.6,199.2c11.2,6.5,11.2,22.7,0,29.1l-566.1,327.7
		c-15.8,9.1-35.2,9.1-51,0L190.6,910.9C180.7,905.2,180.7,890.9,190.6,885.1z"/>
	<path class="st1" d="M1139.6,761.4l-13.9-6.9L793.9,562.7c-15-8.7-33.4-8.7-48.4,0L215.1,869.8v0l-34.9,17.5v10.2l0.1,0
		c-0.3,5.2,2.1,10.5,7.2,13.5L527,1107.3c15.5,8.9,34.5,8.9,50,0l554.4-321c5.2-3,7.9-8.2,8.2-13.5l0.1,0V761.4z"/>
	<linearGradient id="SVGID_1_" gradientUnits="userSpaceOnUse" x1="414.3763" y1="823.824" x2="1373.7654" y2="823.824">
		<stop  offset="0" style="stop-color:#E7E7E7"/>
		<stop  offset="1" style="stop-color:#C8DCF0"/>
	</linearGradient>
	<path class="st2" d="M187.5,874.5l558-323.1c15-8.7,33.4-8.7,48.4,0l337.5,195.1c11,6.3,11,22.2,0,28.5L577,1096
		c-15.4,8.9-34.5,8.9-50,0L187.5,899.7C177.8,894.1,177.8,880.1,187.5,874.5z"/>
	<path class="st3" d="M264,851.6l460.1-266.4c5.8-3.4,13-3.4,18.8,0l163.3,93.5c5.6,3.2,5.6,11.3,0,14.5l-459,265.7
		c-5.1,3-11.5,3-16.6,0L264,863.4C259.4,860.8,259.4,854.2,264,851.6z"/>
	<path class="st3" d="M618.1,885.9l172.8-100c4.6-2.7,10.3-2.7,15,0l104.5,60.4c3.4,2,3.4,6.9,0,8.8l-171.7,99.4
		c-4.8,2.8-10.7,2.8-15.5,0l-105.1-60.8C615.1,892,615.1,887.6,618.1,885.9z"/>
	<path class="st1" d="M753.3,527.6L648.4,75.5l-8-4l-1.5-12.8l0,0c-4.5-2.2-10-2.4-14.8,0.4L71,378.6c-10.5,6.1-15.8,18.3-13,30.1
		l105.1,451.4c1.3,5.7,5.4,9.8,10.4,11.6l0,0l9.6-7.1l8.9,3l552.2-319.7C751.2,543.8,754.9,535.6,753.3,527.6z"/>
	<path class="st4" d="M848.5,652.8l18.7,10.8c2.3,1.3,2.3,4.7,0,6l-58.7,34c-1.1,0.6-2.4,0.6-3.5,0l-18.7-10.8c-2.3-1.3-2.3-4.7,0-6
		l58.7-34C846.1,652.2,847.4,652.2,848.5,652.8z M379.7,842.4l-17.4,10.1c-1.1,0.6-2.4,0.6-3.5,0l-19.6-11.3c-2.3-1.3-2.3-4.7,0-6
		l19.9-11.5l-0.4,0.7l20.9,12.1C382,837.7,382,841,379.7,842.4z M674.5,671.7l-18.1,10.5c-1.1,0.6-2.4,0.6-3.5,0l-19.6-11.3
		c-2.3-1.3-2.3-4.7,0-6l20.1-11.6l-0.1,0.2l21.2,12.3C676.9,667,676.9,670.3,674.5,671.7z M622.9,738l-17.7,10.3
		c-1.1,0.6-2.4,0.6-3.5,0l-18.8-10.9c-2.3-1.3-2.3-4.7,0-6l19.6-11.3l0,0.1l20.5,11.8C625.2,733.3,625.2,736.6,622.9,738z
		 M688.5,700l-17.8,10.3c-1.1,0.6-2.4,0.6-3.5,0l-18.8-10.9c-2.3-1.3-2.3-4.7,0-6l17.8-10.3c1.1-0.6,2.4-0.6,3.5,0l18.8,10.9
		C690.8,695.4,690.8,698.7,688.5,700z M681.2,674.5l17.8-10.3c1.1-0.6,2.4-0.6,3.5,0l18.8,10.9c2.3,1.3,2.3,4.7,0,6l-17.8,10.3
		c-1.1,0.6-2.4,0.6-3.5,0l-18.8-10.9C678.9,679.1,678.9,675.8,681.2,674.5z M655.7,719l-17.7,10.3c-1.1,0.6-2.4,0.6-3.5,0
		l-18.8-10.9c-2.3-1.3-2.3-4.7,0-6l17.7-10.3c1.1-0.6,2.4-0.6,3.5,0l18.8,10.9C658,714.4,658,717.7,655.7,719z M595.4,753.9
		L595.4,753.9l-0.4-0.2l-0.4,0.7l-22,12.7c-1.1,0.6-2.4,0.6-3.5,0l-18.8-10.9c-2.3-1.3-2.3-4.7,0-6l17.6-10.2c1.1-0.6,2.4-0.6,3.5,0
		L595.4,753.9z M557.6,775.8l-17.7,10.2c-1.1,0.6-2.4,0.6-3.5,0l-18.8-10.9c-2.3-1.3-2.3-4.7,0-6l17.7-10.2c1.1-0.6,2.4-0.6,3.5,0
		l18.8,10.9C559.9,771.2,559.9,774.5,557.6,775.8z M524.9,794.8l-17.6,10.2c-1.1,0.6-2.4,0.6-3.5,0L485,794.1c-2.3-1.3-2.3-4.7,0-6
		l17.6-10.2c1.1-0.6,2.4-0.6,3.5,0l18.8,10.9C527.2,790.1,527.2,793.4,524.9,794.8z M497.4,810.6L497.4,810.6l-23.6,13.7
		c-1.1,0.6-2.4,0.6-3.5,0l-18.8-10.9c-2.3-1.3-2.3-4.7,0-6l18.4-10.7c1.1-0.6,2.4-0.6,3.5,0L497.4,810.6z M458.8,833l-17.2,10
		c-1.1,0.6-2.4,0.6-3.5,0l-18.8-10.9c-2.3-1.3-2.3-4.7,0-6l17.2-10c1.1-0.6,2.4-0.6,3.5,0l18.8,10.9
		C461.2,828.3,461.2,831.6,458.8,833z M464.8,838.2l19,11c2.3,1.3,2.3,4.7,0,6l-18.3,10.6c-1.1,0.6-2.4,0.6-3.5,0l-19-11
		c-2.3-1.3-2.3-4.7,0-6l18.3-10.6C462.4,837.6,463.7,837.6,464.8,838.2z M476.3,829.6l18.4-10.7c1.1-0.6,2.4-0.6,3.5,0l19,11
		c2.3,1.3,2.3,4.7,0,6l-18.4,10.7c-1.1,0.6-2.4,0.6-3.5,0l-19-11C474,834.2,474,830.9,476.3,829.6z M509.8,810.2l15.9-9.2
		c1.1-0.6,2.4-0.6,3.5,0l19,11c2.3,1.3,2.3,4.7,0,6l-15.9,9.2c-1.1,0.6-2.4,0.6-3.5,0l-19-11C507.5,814.9,507.5,811.5,509.8,810.2z
		 M540.7,792.3l17.9-10.4c1.1-0.6,2.4-0.6,3.5,0l19,11c2.3,1.3,2.3,4.7,0,6l-17.9,10.4c-1.1,0.6-2.4,0.6-3.5,0l-19-11
		C538.4,796.9,538.4,793.6,540.7,792.3z M573.6,773.2l17.7-10.2c1.1-0.6,2.4-0.6,3.5,0l19,11c2.3,1.3,2.3,4.7,0,6l-17.7,10.2
		c-1.1,0.6-2.4,0.6-3.5,0l-19-11C571.3,777.9,571.3,774.6,573.6,773.2z M606.3,754.3L624,744c1.1-0.6,2.4-0.6,3.5,0l19,11
		c2.3,1.3,2.3,4.7,0,6l-17.7,10.3c-1.1,0.6-2.4,0.6-3.5,0l-19-11C604,759,604,755.6,606.3,754.3z M639,735.3l18.2-10.6
		c1.1-0.6,2.4-0.6,3.5,0l19,11c2.3,1.3,2.3,4.7,0,6l-18.2,10.6c-1.1,0.6-2.4,0.6-3.5,0l-19-11C636.7,740,636.7,736.7,639,735.3z
		 M672.3,716.1l17.3-10c1.1-0.6,2.4-0.6,3.5,0l19,11c2.3,1.3,2.3,4.7,0,6l-17.3,10c-1.1,0.6-2.4,0.6-3.5,0l-19-11
		C670,720.8,670,717.4,672.3,716.1z M704.6,703.4c-2.3-1.3-2.3-4.7,0-6l19.8-11.4l-0.2,0.3l20.6,11.9c2.3,1.3,2.3,4.7,0,6
		l-17.7,10.2c-1.1,0.6-2.4,0.6-3.5,0L704.6,703.4z M737.3,678.5l18-10.4c1.1-0.6,2.4-0.6,3.5,0l19,11c2.3,1.3,2.3,4.7,0,6l-18,10.4
		c-1.1,0.6-2.4,0.6-3.5,0l-19-11C735,683.1,735,679.8,737.3,678.5z M732.8,672.4L714,661.5c-2.3-1.3-2.3-4.7,0-6l17.9-10.4
		c1.1-0.6,2.4-0.6,3.5,0l18.8,10.9c2.3,1.3,2.3,4.7,0,6l-17.9,10.4C735.2,673,733.9,673,732.8,672.4z M718.5,644.2l-19.6-11.3
		c-2.3-1.3-2.3-4.7,0-6l18-10.4c1.1-0.6,2.4-0.6,3.5,0l19.6,11.3c2.3,1.3,2.3,4.7,0,6l-18,10.4C720.9,644.8,719.6,644.8,718.5,644.2
		z M707,652.9L689.6,663c-1.1,0.6-2.4,0.6-3.5,0l-19.6-11.3c-2.3-1.3-2.3-4.7,0-6l17.4-10.1c1.1-0.6,2.4-0.6,3.5,0l19.6,11.3
		C709.3,648.2,709.3,651.5,707,652.9z M641.4,690.8L623.8,701c-1.1,0.6-2.4,0.6-3.5,0l-19.6-11.3c-2.3-1.3-2.3-4.7,0-6l17.6-10.2
		c1.1-0.6,2.4-0.6,3.5,0l19.6,11.3C643.7,686.2,643.7,689.5,641.4,690.8z M608.8,709.7L591,720c-1.1,0.6-2.4,0.6-3.5,0l-19.6-11.3
		c-2.3-1.3-2.3-4.7,0-6l17.8-10.3c1.1-0.6,2.4-0.6,3.5,0l19.6,11.3C611.1,705,611.1,708.4,608.8,709.7z M576,728.7l-17.5,10.1
		c-1.1,0.6-2.4,0.6-3.5,0l-19.6-11.3c-2.3-1.3-2.3-4.7,0-6l17.5-10.1c1.1-0.6,2.4-0.6,3.5,0l19.6,11.3
		C578.3,724.1,578.3,727.4,576,728.7z M543.5,747.5l-17.8,10.3c-1.1,0.6-2.4,0.6-3.5,0l-19.6-11.3c-2.3-1.3-2.3-4.7,0-6l17.8-10.3
		c1.1-0.6,2.4-0.6,3.5,0l19.6,11.3C545.8,742.9,545.8,746.2,543.5,747.5z M510.7,766.5l-17.2,10c-1.1,0.6-2.4,0.6-3.5,0l-19.6-11.3
		c-2.3-1.3-2.3-4.7,0-6l17.2-10c1.1-0.6,2.4-0.6,3.5,0l19.6,11.3C513,761.9,513,765.2,510.7,766.5z M478.5,785.2l-18,10.4
		c-1.1,0.6-2.4,0.6-3.5,0l-19.6-11.3c-2.3-1.3-2.3-4.7,0-6l18-10.4c1.1-0.6,2.4-0.6,3.5,0l19.6,11.3
		C480.8,780.5,480.8,783.8,478.5,785.2z M445.5,804.3l-18,10.4c-1.1,0.6-2.4,0.6-3.5,0l-19.6-11.3c-2.3-1.3-2.3-4.7,0-6l6.2-3.6
		l11.8-6.9c1.1-0.6,2.4-0.6,3.5,0l19.6,11.3C447.8,799.6,447.8,802.9,445.5,804.3z M412.5,823.4l-17.8,10.3c-1.1,0.6-2.4,0.6-3.5,0
		l-19.6-11.3c-2.3-1.3-2.3-4.7,0-6l17.8-10.3c1.1-0.6,2.4-0.6,3.5,0l19.6,11.3C414.8,818.7,414.8,822.1,412.5,823.4z M375.1,853.7
		l18.8,10.9c2.3,1.3,2.3,4.7,0,6l-18,10.4c-1.1,0.6-2.4,0.6-3.5,0l-18.8-10.9c-2.3-1.3-2.3-4.7,0-6l18-10.4
		C372.7,853.1,374.1,853.1,375.1,853.7z M386.7,845l17.7-10.2c1.1-0.6,2.4-0.6,3.5,0l18.8,10.9c2.3,1.3,2.3,4.7,0,6l-17.7,10.2
		c-1.1,0.6-2.4,0.6-3.5,0L386.7,851C384.4,849.7,384.4,846.4,386.7,845z M430.1,856.3l-0.2,0.3l20.5,11.9c2.3,1.3,2.3,4.7,0,6
		l-17.8,10.3c-1.1,0.6-2.4,0.6-3.5,0l-19-11c-2.3-1.3-2.3-4.7,0-6L430.1,856.3z M479.1,866.6l18.7,10.8c2.3,1.3,2.3,4.7,0,6
		l-16.6,9.6c-1.1,0.6-2.4,0.6-3.5,0l-18.7-10.8c-2.3-1.3-2.3-4.7,0-6l16.6-9.6C476.7,866,478.1,866,479.1,866.6z M490.7,857.9
		l18.1-10.5c1.1-0.6,2.4-0.6,3.5,0l18.7,10.8c2.3,1.3,2.3,4.7,0,6l-18.1,10.5c-1.1,0.6-2.4,0.6-3.5,0l-18.7-10.8
		C488.4,862.6,488.4,859.2,490.7,857.9z M523.8,838.7l18.1-10.5c1.1-0.6,2.4-0.6,3.5,0l18.7,10.8c2.3,1.3,2.3,4.7,0,6L546,855.6
		c-1.1,0.6-2.4,0.6-3.5,0l-18.7-10.8C521.5,843.4,521.5,840.1,523.8,838.7z M556.9,819.6l17.6-10.2c1.1-0.6,2.4-0.6,3.5,0l18.7,10.8
		c2.3,1.3,2.3,4.7,0,6l-17.6,10.2c-1.1,0.6-2.4,0.6-3.5,0l-18.7-10.8C554.6,824.2,554.6,820.9,556.9,819.6z M589.5,806.7
		c-2.3-1.3-2.3-4.7,0-6l20.5-11.9l-0.2,0.3l20.3,11.7c2.3,1.3,2.3,4.7,0,6l-18.4,10.7c-1.1,0.6-2.4,0.6-3.5,0L589.5,806.7z
		 M622.9,781.3l17.7-10.2c1.1-0.6,2.4-0.6,3.5,0l18.7,10.8c2.3,1.3,2.3,4.7,0,6l-17.7,10.2c-1.1,0.6-2.4,0.6-3.5,0l-18.7-10.8
		C620.6,786,620.6,782.7,622.9,781.3z M655.6,762.4l17.5-10.1c1.1-0.6,2.4-0.6,3.5,0l18.7,10.8c2.3,1.3,2.3,4.7,0,6l-17.5,10.1
		c-1.1,0.6-2.4,0.6-3.5,0l-18.7-10.8C653.3,767.1,653.3,763.8,655.6,762.4z M688.1,743.6l18.2-10.5c1.1-0.6,2.4-0.6,3.5,0l18.7,10.8
		c2.3,1.3,2.3,4.7,0,6l-18.2,10.5c-1.1,0.6-2.4,0.6-3.5,0l-18.7-10.8C685.8,748.3,685.8,744.9,688.1,743.6z M721.3,730.4
		c-2.3-1.3-2.3-4.7,0-6l19.1-11.1l-0.1,0.3l20.3,11.8c2.3,1.3,2.3,4.7,0,6l-17.1,9.9c-1.1,0.6-2.4,0.6-3.5,0L721.3,730.4z
		 M753.4,705.8l17.9-10.3c1.1-0.6,2.4-0.6,3.5,0l18.7,10.8c2.3,1.3,2.3,4.7,0,6l-17.9,10.3c-1.1,0.6-2.4,0.6-3.5,0l-18.7-10.8
		C751.1,710.5,751.1,707.1,753.4,705.8z M816.8,634.5l19,11c2.3,1.3,2.3,4.7,0,6l-43,24.9c-1.1,0.6-2.4,0.6-3.5,0l-19-11
		c-2.3-1.3-2.3-4.7,0-6l43-24.9C814.4,633.8,815.7,633.8,816.8,634.5z M785.3,616.2l18.8,10.9c2.3,1.3,2.3,4.7,0,6l-34.9,20.2
		c-1.1,0.6-2.4,0.6-3.5,0L747,642.4c-2.3-1.3-2.3-4.7,0-6l34.9-20.2C782.9,615.6,784.2,615.6,785.3,616.2z M753,597.6l19.6,11.3
		c2.3,1.3,2.3,4.7,0,6L755,625.1c-1.1,0.6-2.4,0.6-3.5,0l-19.6-11.3c-2.3-1.3-2.3-4.7,0-6l17.6-10.2C750.6,597,751.9,597,753,597.6z
		 M735.7,587.6l4.6,2.7c2.3,1.3,2.3,4.7,0,6l-34.5,20c-1.1,0.6-2.4,0.6-3.5,0l-4.6-2.7c-2.3-1.3-2.3-4.7,0-6l34.5-20
		C733.3,586.9,734.6,586.9,735.7,587.6z M686.2,616.2l4.6,2.7c2.3,1.3,2.3,4.7,0,6l-18,10.4c-1.1,0.6-2.4,0.6-3.5,0l-4.6-2.7
		c-2.3-1.3-2.3-4.7,0-6l18-10.4C683.8,615.6,685.1,615.6,686.2,616.2z M653.1,635.3l4.6,2.7c2.3,1.3,2.3,4.7,0,6l-17.7,10.2
		c-1.1,0.6-2.4,0.6-3.5,0l-4.6-2.7c-2.3-1.3-2.3-4.7,0-6l17.7-10.2C650.7,634.7,652,634.7,653.1,635.3z M620.4,654.3l4.6,2.7
		c2.3,1.3,2.3,4.7,0,6l-18.4,10.6c-1.1,0.6-2.4,0.6-3.5,0l-4.6-2.7c-2.3-1.3-2.3-4.7,0-6l18.4-10.6
		C618,653.7,619.3,653.7,620.4,654.3z M587,673.6l4.6,2.7c2.3,1.3,2.3,4.7,0,6l-17.6,10.2c-1.1,0.6-2.4,0.6-3.5,0l-4.6-2.7
		c-2.3-1.3-2.3-4.7,0-6l17.6-10.2C584.6,673,586,673,587,673.6z M554.4,692.5l4.6,2.7c2.3,1.3,2.3,4.7,0,6l-17.5,10.1
		c-1.1,0.6-2.4,0.6-3.5,0l-4.6-2.7c-2.3-1.3-2.3-4.7,0-6l17.5-10.1C552,691.9,553.4,691.9,554.4,692.5z M521.9,711.3l4.6,2.7
		c2.3,1.3,2.3,4.7,0,6l-18,10.4c-1.1,0.6-2.4,0.6-3.5,0l-4.6-2.7c-2.3-1.3-2.3-4.7,0-6l18-10.4C519.5,710.7,520.8,710.7,521.9,711.3
		z M488.9,730.4l4.6,2.7c2.3,1.3,2.3,4.7,0,6L476,749.2c-1.1,0.6-2.4,0.6-3.5,0l-4.6-2.7c-2.3-1.3-2.3-4.7,0-6l17.5-10.1
		C486.5,729.8,487.8,729.8,488.9,730.4z M456.4,749.2l4.6,2.7c2.3,1.3,2.3,4.7,0,6l-17.8,10.3c-1.1,0.6-2.4,0.6-3.5,0l-4.6-2.7
		c-2.3-1.3-2.3-4.7,0-6l17.8-10.3C454,748.6,455.3,748.6,456.4,749.2z M423.6,768.3l4.6,2.7c2.3,1.3,2.3,4.7,0,6l-20.5,11.9
		l-14.2,8.2l-0.4-0.2l-0.4,0.7l-14.7,8.5c-1.1,0.6-2.4,0.6-3.5,0l-4.6-2.7c-2.3-1.3-2.3-4.7,0-6l50.2-29.1
		C421.2,767.6,422.5,767.6,423.6,768.3z M358.3,806l4.6,2.7c2.3,1.3,2.3,4.7,0,6L345.2,825c-1.1,0.6-2.4,0.6-3.5,0l-4.6-2.7
		c-2.3-1.3-2.3-4.7,0-6l17.8-10.3C355.9,805.4,357.2,805.4,358.3,806z M325.5,825l4.6,2.7c2.3,1.3,2.3,4.7,0,6l-18,10.4
		c-1.1,0.6-2.4,0.6-3.5,0l-4.6-2.7c-2.3-1.3-2.3-4.7,0-6l18-10.4C323.1,824.4,324.5,824.4,325.5,825z M278.8,861.4l-4.6-2.7
		c-2.3-1.3-2.3-4.7,0-6l14.9-8.6c1.1-0.6,2.4-0.6,3.5,0l4.6,2.7c2.3,1.3,2.3,4.7,0,6l-14.9,8.6C281.2,862,279.9,862,278.8,861.4z
		 M311.1,880.1l-19.6-11.3c-2.3-1.3-2.3-4.7,0-6l32.7-18.9c1.1-0.6,2.4-0.6,3.5,0l19.6,11.3c2.3,1.3,2.3,4.7,0,6l-32.7,18.9
		C313.5,880.7,312.2,880.7,311.1,880.1z M342.6,898.3l-18.8-10.9c-2.3-1.3-2.3-4.7,0-6l14.9-8.6c1.1-0.6,2.4-0.6,3.5,0l18.8,10.9
		c2.3,1.3,2.3,4.7,0,6l-14.9,8.6C345,898.9,343.7,898.9,342.6,898.3z M374.3,916.6l-19-11c-2.3-1.3-2.3-4.7,0-6l39.9-23.1
		c1.1-0.6,2.4-0.6,3.5,0l19,11c2.3,1.3,2.3,4.7,0,6l-39.9,23.1C376.7,917.2,375.4,917.2,374.3,916.6z M405.7,934.8L387,923.9
		c-2.3-1.3-2.3-4.7,0-6l57.1-33.1c1.1-0.6,2.4-0.6,3.5,0l18.7,10.8c2.3,1.3,2.3,4.7,0,6l-57.1,33.1
		C408.1,935.4,406.8,935.4,405.7,934.8z M435.7,952.1l-17.3-10c-2.3-1.3-2.3-4.7,0-6l15-8.7c1.1-0.6,2.4-0.6,3.5,0l17.3,10
		c2.3,1.3,2.3,4.7,0,6l-15,8.7C438.1,952.7,436.8,952.7,435.7,952.1z M465.7,934.8l-17.3-10c-2.3-1.3-2.3-4.7,0-6l17.5-10.1
		c1.1-0.6,2.4-0.6,3.5,0l17.3,10c2.3,1.3,2.3,4.7,0,6l-17.5,10.1C468.1,935.4,466.8,935.4,465.7,934.8z M498.2,915.9l-17.3-10
		c-2.3-1.3-2.3-4.7,0-6l18.5-10.7c1.1-0.6,2.4-0.6,3.5,0l17.3,10c2.3,1.3,2.3,4.7,0,6l-18.5,10.7
		C500.6,916.5,499.3,916.5,498.2,915.9z M531.7,896.5l-17.3-10c-2.3-1.3-2.3-4.7,0-6l17.2-10c1.1-0.6,2.4-0.6,3.5,0l17.3,10
		c2.3,1.3,2.3,4.7,0,6l-17.2,10C534.1,897.2,532.8,897.2,531.7,896.5z M563.9,877.9l-17.3-10c-2.3-1.3-2.3-4.7,0-6l26.7-15.5
		c1.1-0.6,2.4-0.6,3.5,0l17.3,10c2.3,1.3,2.3,4.7,0,6l-26.7,15.5C566.3,878.5,565,878.5,563.9,877.9z M605.6,853.7l-17.3-10
		c-2.3-1.3-2.3-4.7,0-6l149.4-86.5c1.1-0.6,2.4-0.6,3.5,0l17.3,10c2.3,1.3,2.3,4.7,0,6l-149.4,86.5
		C608,854.4,606.7,854.4,605.6,853.7z M770,758.6l-17.3-10c-2.3-1.3-2.3-4.7,0-6l27.7-16l-0.1,0.2l18.9,10.9c2.3,1.3,2.3,4.7,0,6
		l-25.7,14.9C772.4,759.2,771.1,759.2,770,758.6z M810.7,735l-17.3-10c-2.3-1.3-2.3-4.7,0-6l17.8-10.3c1.1-0.6,2.4-0.6,3.5,0
		l17.3,10c2.3,1.3,2.3,4.7,0,6L814.2,735C813.1,735.6,811.8,735.6,810.7,735z M843.6,716l-17.3-10c-2.3-1.3-2.3-4.7,0-6l17.5-10.1
		c1.1-0.6,2.4-0.6,3.5,0l17.3,10c2.3,1.3,2.3,4.7,0,6L847,716C846,716.6,844.6,716.6,843.6,716z M897.2,687l-17.6,10.2
		c-1.1,0.6-2.4,0.6-3.5,0l-17.3-10c-2.3-1.3-2.3-4.7,0-6l17.6-10.2c1.1-0.6,2.4-0.6,3.5,0l17.3,10
		C899.5,682.3,899.5,685.6,897.2,687z"/>
	<path class="st5" d="M848.5,651.1l18.7,10.8c2.3,1.3,2.3,4.7,0,6l-58.7,34c-1.1,0.6-2.4,0.6-3.5,0l-18.7-10.8c-2.3-1.3-2.3-4.7,0-6
		l58.7-34C846.1,650.5,847.4,650.5,848.5,651.1z M379.7,840.7l-17.4,10.1c-1.1,0.6-2.4,0.6-3.5,0l-19.6-11.3c-2.3-1.3-2.3-4.7,0-6
		l19.9-11.5l-0.4,0.7l20.9,12.1C382,836,382,839.3,379.7,840.7z M674.5,670l-18.1,10.5c-1.1,0.6-2.4,0.6-3.5,0l-19.6-11.3
		c-2.3-1.3-2.3-4.7,0-6l20.1-11.6l-0.1,0.2l21.2,12.3C676.9,665.3,676.9,668.6,674.5,670z M622.9,736.3l-17.7,10.3
		c-1.1,0.6-2.4,0.6-3.5,0l-18.8-10.9c-2.3-1.3-2.3-4.7,0-6l19.6-11.3l0,0.1l20.5,11.8C625.2,731.6,625.2,734.9,622.9,736.3z
		 M688.5,698.3l-17.8,10.3c-1.1,0.6-2.4,0.6-3.5,0l-18.8-10.9c-2.3-1.3-2.3-4.7,0-6l17.8-10.3c1.1-0.6,2.4-0.6,3.5,0l18.8,10.9
		C690.8,693.7,690.8,697,688.5,698.3z M681.2,672.8l17.8-10.3c1.1-0.6,2.4-0.6,3.5,0l18.8,10.9c2.3,1.3,2.3,4.7,0,6l-17.8,10.3
		c-1.1,0.6-2.4,0.6-3.5,0l-18.8-10.9C678.9,677.4,678.9,674.1,681.2,672.8z M655.7,717.3l-17.7,10.3c-1.1,0.6-2.4,0.6-3.5,0
		l-18.8-10.9c-2.3-1.3-2.3-4.7,0-6l17.7-10.3c1.1-0.6,2.4-0.6,3.5,0l18.8,10.9C658,712.7,658,716,655.7,717.3z M595.4,752.2
		L595.4,752.2L595,752l-0.4,0.7l-22,12.7c-1.1,0.6-2.4,0.6-3.5,0l-18.8-10.9c-2.3-1.3-2.3-4.7,0-6l17.6-10.2c1.1-0.6,2.4-0.6,3.5,0
		L595.4,752.2z M557.6,774.1l-17.7,10.2c-1.1,0.6-2.4,0.6-3.5,0l-18.8-10.9c-2.3-1.3-2.3-4.7,0-6l17.7-10.2c1.1-0.6,2.4-0.6,3.5,0
		l18.8,10.9C559.9,769.5,559.9,772.8,557.6,774.1z M524.9,793.1l-17.6,10.2c-1.1,0.6-2.4,0.6-3.5,0L485,792.4c-2.3-1.3-2.3-4.7,0-6
		l17.6-10.2c1.1-0.6,2.4-0.6,3.5,0l18.8,10.9C527.2,788.4,527.2,791.7,524.9,793.1z M497.4,808.9L497.4,808.9l-23.6,13.7
		c-1.1,0.6-2.4,0.6-3.5,0l-18.8-10.9c-2.3-1.3-2.3-4.7,0-6l18.4-10.7c1.1-0.6,2.4-0.6,3.5,0L497.4,808.9z M458.8,831.3l-17.2,10
		c-1.1,0.6-2.4,0.6-3.5,0l-18.8-10.9c-2.3-1.3-2.3-4.7,0-6l17.2-10c1.1-0.6,2.4-0.6,3.5,0l18.8,10.9
		C461.2,826.6,461.2,829.9,458.8,831.3z M464.8,836.5l19,11c2.3,1.3,2.3,4.7,0,6l-18.3,10.6c-1.1,0.6-2.4,0.6-3.5,0l-19-11
		c-2.3-1.3-2.3-4.7,0-6l18.3-10.6C462.4,835.9,463.7,835.9,464.8,836.5z M476.3,827.9l18.4-10.7c1.1-0.6,2.4-0.6,3.5,0l19,11
		c2.3,1.3,2.3,4.7,0,6l-18.4,10.7c-1.1,0.6-2.4,0.6-3.5,0l-19-11C474,832.5,474,829.2,476.3,827.9z M509.8,808.5l15.9-9.2
		c1.1-0.6,2.4-0.6,3.5,0l19,11c2.3,1.3,2.3,4.7,0,6l-15.9,9.2c-1.1,0.6-2.4,0.6-3.5,0l-19-11C507.5,813.2,507.5,809.8,509.8,808.5z
		 M540.7,790.6l17.9-10.4c1.1-0.6,2.4-0.6,3.5,0l19,11c2.3,1.3,2.3,4.7,0,6l-17.9,10.4c-1.1,0.6-2.4,0.6-3.5,0l-19-11
		C538.4,795.2,538.4,791.9,540.7,790.6z M573.6,771.5l17.7-10.2c1.1-0.6,2.4-0.6,3.5,0l19,11c2.3,1.3,2.3,4.7,0,6l-17.7,10.2
		c-1.1,0.6-2.4,0.6-3.5,0l-19-11C571.3,776.2,571.3,772.9,573.6,771.5z M606.3,752.6l17.7-10.3c1.1-0.6,2.4-0.6,3.5,0l19,11
		c2.3,1.3,2.3,4.7,0,6l-17.7,10.3c-1.1,0.6-2.4,0.6-3.5,0l-19-11C604,757.3,604,753.9,606.3,752.6z M639,733.6l18.2-10.6
		c1.1-0.6,2.4-0.6,3.5,0l19,11c2.3,1.3,2.3,4.7,0,6l-18.2,10.6c-1.1,0.6-2.4,0.6-3.5,0l-19-11C636.7,738.3,636.7,735,639,733.6z
		 M672.3,714.4l17.3-10c1.1-0.6,2.4-0.6,3.5,0l19,11c2.3,1.3,2.3,4.7,0,6l-17.3,10c-1.1,0.6-2.4,0.6-3.5,0l-19-11
		C670,719.1,670,715.7,672.3,714.4z M704.6,701.7c-2.3-1.3-2.3-4.7,0-6l19.8-11.4l-0.2,0.3l20.6,11.9c2.3,1.3,2.3,4.7,0,6
		l-17.7,10.2c-1.1,0.6-2.4,0.6-3.5,0L704.6,701.7z M737.3,676.8l18-10.4c1.1-0.6,2.4-0.6,3.5,0l19,11c2.3,1.3,2.3,4.7,0,6l-18,10.4
		c-1.1,0.6-2.4,0.6-3.5,0l-19-11C735,681.4,735,678.1,737.3,676.8z M732.8,670.7L714,659.8c-2.3-1.3-2.3-4.7,0-6l17.9-10.4
		c1.1-0.6,2.4-0.6,3.5,0l18.8,10.9c2.3,1.3,2.3,4.7,0,6l-17.9,10.4C735.2,671.3,733.9,671.3,732.8,670.7z M718.5,642.5l-19.6-11.3
		c-2.3-1.3-2.3-4.7,0-6l18-10.4c1.1-0.6,2.4-0.6,3.5,0l19.6,11.3c2.3,1.3,2.3,4.7,0,6l-18,10.4C720.9,643.1,719.6,643.1,718.5,642.5
		z M707,651.2l-17.4,10.1c-1.1,0.6-2.4,0.6-3.5,0L666.5,650c-2.3-1.3-2.3-4.7,0-6l17.4-10.1c1.1-0.6,2.4-0.6,3.5,0l19.6,11.3
		C709.3,646.5,709.3,649.8,707,651.2z M641.4,689.1l-17.6,10.2c-1.1,0.6-2.4,0.6-3.5,0L600.8,688c-2.3-1.3-2.3-4.7,0-6l17.6-10.2
		c1.1-0.6,2.4-0.6,3.5,0l19.6,11.3C643.7,684.5,643.7,687.8,641.4,689.1z M608.8,708L591,718.3c-1.1,0.6-2.4,0.6-3.5,0L567.9,707
		c-2.3-1.3-2.3-4.7,0-6l17.8-10.3c1.1-0.6,2.4-0.6,3.5,0l19.6,11.3C611.1,703.3,611.1,706.7,608.8,708z M576,727l-17.5,10.1
		c-1.1,0.6-2.4,0.6-3.5,0l-19.6-11.3c-2.3-1.3-2.3-4.7,0-6l17.5-10.1c1.1-0.6,2.4-0.6,3.5,0L576,721
		C578.3,722.4,578.3,725.7,576,727z M543.5,745.8l-17.8,10.3c-1.1,0.6-2.4,0.6-3.5,0l-19.6-11.3c-2.3-1.3-2.3-4.7,0-6l17.8-10.3
		c1.1-0.6,2.4-0.6,3.5,0l19.6,11.3C545.8,741.2,545.8,744.5,543.5,745.8z M510.7,764.8l-17.2,10c-1.1,0.6-2.4,0.6-3.5,0l-19.6-11.3
		c-2.3-1.3-2.3-4.7,0-6l17.2-10c1.1-0.6,2.4-0.6,3.5,0l19.6,11.3C513,760.2,513,763.5,510.7,764.8z M478.5,783.5l-18,10.4
		c-1.1,0.6-2.4,0.6-3.5,0l-19.6-11.3c-2.3-1.3-2.3-4.7,0-6l18-10.4c1.1-0.6,2.4-0.6,3.5,0l19.6,11.3
		C480.8,778.8,480.8,782.1,478.5,783.5z M445.5,802.6l-18,10.4c-1.1,0.6-2.4,0.6-3.5,0l-19.6-11.3c-2.3-1.3-2.3-4.7,0-6l6.2-3.6
		l11.8-6.9c1.1-0.6,2.4-0.6,3.5,0l19.6,11.3C447.8,797.9,447.8,801.2,445.5,802.6z M412.5,821.7L394.7,832c-1.1,0.6-2.4,0.6-3.5,0
		l-19.6-11.3c-2.3-1.3-2.3-4.7,0-6l17.8-10.3c1.1-0.6,2.4-0.6,3.5,0l19.6,11.3C414.8,817,414.8,820.4,412.5,821.7z M375.1,852
		l18.8,10.9c2.3,1.3,2.3,4.7,0,6l-18,10.4c-1.1,0.6-2.4,0.6-3.5,0l-18.8-10.9c-2.3-1.3-2.3-4.7,0-6l18-10.4
		C372.7,851.4,374.1,851.4,375.1,852z M386.7,843.3l17.7-10.2c1.1-0.6,2.4-0.6,3.5,0l18.8,10.9c2.3,1.3,2.3,4.7,0,6l-17.7,10.2
		c-1.1,0.6-2.4,0.6-3.5,0l-18.8-10.9C384.4,848,384.4,844.6,386.7,843.3z M430.1,854.6l-0.2,0.3l20.5,11.9c2.3,1.3,2.3,4.7,0,6
		l-17.8,10.3c-1.1,0.6-2.4,0.6-3.5,0l-19-11c-2.3-1.3-2.3-4.7,0-6L430.1,854.6z M479.1,864.9l18.7,10.8c2.3,1.3,2.3,4.7,0,6
		l-16.6,9.6c-1.1,0.6-2.4,0.6-3.5,0l-18.7-10.8c-2.3-1.3-2.3-4.7,0-6l16.6-9.6C476.7,864.3,478.1,864.3,479.1,864.9z M490.7,856.2
		l18.1-10.5c1.1-0.6,2.4-0.6,3.5,0l18.7,10.8c2.3,1.3,2.3,4.7,0,6L512.9,873c-1.1,0.6-2.4,0.6-3.5,0l-18.7-10.8
		C488.4,860.9,488.4,857.5,490.7,856.2z M523.8,837l18.1-10.5c1.1-0.6,2.4-0.6,3.5,0l18.7,10.8c2.3,1.3,2.3,4.7,0,6L546,853.9
		c-1.1,0.6-2.4,0.6-3.5,0l-18.7-10.8C521.5,841.7,521.5,838.4,523.8,837z M556.9,817.9l17.6-10.2c1.1-0.6,2.4-0.6,3.5,0l18.7,10.8
		c2.3,1.3,2.3,4.7,0,6l-17.6,10.2c-1.1,0.6-2.4,0.6-3.5,0l-18.7-10.8C554.6,822.5,554.6,819.2,556.9,817.9z M589.5,805
		c-2.3-1.3-2.3-4.7,0-6l20.5-11.9l-0.2,0.3l20.3,11.7c2.3,1.3,2.3,4.7,0,6l-18.4,10.7c-1.1,0.6-2.4,0.6-3.5,0L589.5,805z
		 M622.9,779.6l17.7-10.2c1.1-0.6,2.4-0.6,3.5,0l18.7,10.8c2.3,1.3,2.3,4.7,0,6l-17.7,10.2c-1.1,0.6-2.4,0.6-3.5,0l-18.7-10.8
		C620.6,784.3,620.6,781,622.9,779.6z M655.6,760.7l17.5-10.1c1.1-0.6,2.4-0.6,3.5,0l18.7,10.8c2.3,1.3,2.3,4.7,0,6l-17.5,10.1
		c-1.1,0.6-2.4,0.6-3.5,0l-18.7-10.8C653.3,765.4,653.3,762.1,655.6,760.7z M688.1,741.9l18.2-10.5c1.1-0.6,2.4-0.6,3.5,0l18.7,10.8
		c2.3,1.3,2.3,4.7,0,6l-18.2,10.5c-1.1,0.6-2.4,0.6-3.5,0l-18.7-10.8C685.8,746.6,685.8,743.2,688.1,741.9z M721.3,728.7
		c-2.3-1.3-2.3-4.7,0-6l19.1-11.1l-0.1,0.3l20.3,11.8c2.3,1.3,2.3,4.7,0,6l-17.1,9.9c-1.1,0.6-2.4,0.6-3.5,0L721.3,728.7z
		 M753.4,704.1l17.9-10.3c1.1-0.6,2.4-0.6,3.5,0l18.7,10.8c2.3,1.3,2.3,4.7,0,6l-17.9,10.3c-1.1,0.6-2.4,0.6-3.5,0l-18.7-10.8
		C751.1,708.8,751.1,705.4,753.4,704.1z M816.8,632.8l19,11c2.3,1.3,2.3,4.7,0,6l-43,24.9c-1.1,0.6-2.4,0.6-3.5,0l-19-11
		c-2.3-1.3-2.3-4.7,0-6l43-24.9C814.4,632.1,815.7,632.1,816.8,632.8z M785.3,614.5l18.8,10.9c2.3,1.3,2.3,4.7,0,6l-34.9,20.2
		c-1.1,0.6-2.4,0.6-3.5,0L747,640.7c-2.3-1.3-2.3-4.7,0-6l34.9-20.2C782.9,613.9,784.2,613.9,785.3,614.5z M753,595.9l19.6,11.3
		c2.3,1.3,2.3,4.7,0,6L755,623.4c-1.1,0.6-2.4,0.6-3.5,0l-19.6-11.3c-2.3-1.3-2.3-4.7,0-6l17.6-10.2
		C750.6,595.3,751.9,595.3,753,595.9z M735.7,585.9l4.6,2.7c2.3,1.3,2.3,4.7,0,6l-34.5,20c-1.1,0.6-2.4,0.6-3.5,0l-4.6-2.7
		c-2.3-1.3-2.3-4.7,0-6l34.5-20C733.3,585.2,734.6,585.2,735.7,585.9z M686.2,614.5l4.6,2.7c2.3,1.3,2.3,4.7,0,6l-18,10.4
		c-1.1,0.6-2.4,0.6-3.5,0l-4.6-2.7c-2.3-1.3-2.3-4.7,0-6l18-10.4C683.8,613.9,685.1,613.9,686.2,614.5z M653.1,633.6l4.6,2.7
		c2.3,1.3,2.3,4.7,0,6l-17.7,10.2c-1.1,0.6-2.4,0.6-3.5,0l-4.6-2.7c-2.3-1.3-2.3-4.7,0-6l17.7-10.2C650.7,633,652,633,653.1,633.6z
		 M620.4,652.6l4.6,2.7c2.3,1.3,2.3,4.7,0,6l-18.4,10.6c-1.1,0.6-2.4,0.6-3.5,0l-4.6-2.7c-2.3-1.3-2.3-4.7,0-6l18.4-10.6
		C618,652,619.3,652,620.4,652.6z M587,671.9l4.6,2.7c2.3,1.3,2.3,4.7,0,6l-17.6,10.2c-1.1,0.6-2.4,0.6-3.5,0l-4.6-2.7
		c-2.3-1.3-2.3-4.7,0-6l17.6-10.2C584.6,671.3,586,671.3,587,671.9z M554.4,690.8l4.6,2.7c2.3,1.3,2.3,4.7,0,6l-17.5,10.1
		c-1.1,0.6-2.4,0.6-3.5,0l-4.6-2.7c-2.3-1.3-2.3-4.7,0-6l17.5-10.1C552,690.2,553.4,690.2,554.4,690.8z M521.9,709.6l4.6,2.7
		c2.3,1.3,2.3,4.7,0,6l-18,10.4c-1.1,0.6-2.4,0.6-3.5,0l-4.6-2.7c-2.3-1.3-2.3-4.7,0-6l18-10.4C519.5,709,520.8,709,521.9,709.6z
		 M488.9,728.7l4.6,2.7c2.3,1.3,2.3,4.7,0,6L476,747.5c-1.1,0.6-2.4,0.6-3.5,0l-4.6-2.7c-2.3-1.3-2.3-4.7,0-6l17.5-10.1
		C486.5,728.1,487.8,728.1,488.9,728.7z M456.4,747.5l4.6,2.7c2.3,1.3,2.3,4.7,0,6l-17.8,10.3c-1.1,0.6-2.4,0.6-3.5,0l-4.6-2.7
		c-2.3-1.3-2.3-4.7,0-6l17.8-10.3C454,746.9,455.3,746.9,456.4,747.5z M423.6,766.6l4.6,2.7c2.3,1.3,2.3,4.7,0,6l-20.5,11.9
		l-14.2,8.2l-0.4-0.2l-0.4,0.7l-14.7,8.5c-1.1,0.6-2.4,0.6-3.5,0l-4.6-2.7c-2.3-1.3-2.3-4.7,0-6l50.2-29.1
		C421.2,765.9,422.5,765.9,423.6,766.6z M358.3,804.3l4.6,2.7c2.3,1.3,2.3,4.7,0,6l-17.8,10.3c-1.1,0.6-2.4,0.6-3.5,0l-4.6-2.7
		c-2.3-1.3-2.3-4.7,0-6l17.8-10.3C355.9,803.7,357.2,803.7,358.3,804.3z M325.5,823.3l4.6,2.7c2.3,1.3,2.3,4.7,0,6l-18,10.4
		c-1.1,0.6-2.4,0.6-3.5,0l-4.6-2.7c-2.3-1.3-2.3-4.7,0-6l18-10.4C323.1,822.7,324.5,822.7,325.5,823.3z M278.8,859.7l-4.6-2.7
		c-2.3-1.3-2.3-4.7,0-6l14.9-8.6c1.1-0.6,2.4-0.6,3.5,0l4.6,2.7c2.3,1.3,2.3,4.7,0,6l-14.9,8.6C281.2,860.3,279.9,860.3,278.8,859.7
		z M311.1,878.4L291.5,867c-2.3-1.3-2.3-4.7,0-6l32.7-18.9c1.1-0.6,2.4-0.6,3.5,0l19.6,11.3c2.3,1.3,2.3,4.7,0,6l-32.7,18.9
		C313.5,879,312.2,879,311.1,878.4z M342.6,896.6l-18.8-10.9c-2.3-1.3-2.3-4.7,0-6l14.9-8.6c1.1-0.6,2.4-0.6,3.5,0l18.8,10.9
		c2.3,1.3,2.3,4.7,0,6l-14.9,8.6C345,897.2,343.7,897.2,342.6,896.6z M374.3,914.9l-19-11c-2.3-1.3-2.3-4.7,0-6l39.9-23.1
		c1.1-0.6,2.4-0.6,3.5,0l19,11c2.3,1.3,2.3,4.7,0,6l-39.9,23.1C376.7,915.5,375.4,915.5,374.3,914.9z M405.7,933.1L387,922.2
		c-2.3-1.3-2.3-4.7,0-6l57.1-33.1c1.1-0.6,2.4-0.6,3.5,0l18.7,10.8c2.3,1.3,2.3,4.7,0,6l-57.1,33.1
		C408.1,933.7,406.8,933.7,405.7,933.1z M435.7,950.4l-17.3-10c-2.3-1.3-2.3-4.7,0-6l15-8.7c1.1-0.6,2.4-0.6,3.5,0l17.3,10
		c2.3,1.3,2.3,4.7,0,6l-15,8.7C438.1,951,436.8,951,435.7,950.4z M465.7,933.1l-17.3-10c-2.3-1.3-2.3-4.7,0-6l17.5-10.1
		c1.1-0.6,2.4-0.6,3.5,0l17.3,10c2.3,1.3,2.3,4.7,0,6l-17.5,10.1C468.1,933.7,466.8,933.7,465.7,933.1z M498.2,914.2l-17.3-10
		c-2.3-1.3-2.3-4.7,0-6l18.5-10.7c1.1-0.6,2.4-0.6,3.5,0l17.3,10c2.3,1.3,2.3,4.7,0,6l-18.5,10.7
		C500.6,914.8,499.3,914.8,498.2,914.2z M531.7,894.8l-17.3-10c-2.3-1.3-2.3-4.7,0-6l17.2-10c1.1-0.6,2.4-0.6,3.5,0l17.3,10
		c2.3,1.3,2.3,4.7,0,6l-17.2,10C534.1,895.5,532.8,895.5,531.7,894.8z M563.9,876.2l-17.3-10c-2.3-1.3-2.3-4.7,0-6l26.7-15.5
		c1.1-0.6,2.4-0.6,3.5,0l17.3,10c2.3,1.3,2.3,4.7,0,6l-26.7,15.5C566.3,876.8,565,876.8,563.9,876.2z M605.6,852l-17.3-10
		c-2.3-1.3-2.3-4.7,0-6l149.4-86.5c1.1-0.6,2.4-0.6,3.5,0l17.3,10c2.3,1.3,2.3,4.7,0,6L609.1,852C608,852.7,606.7,852.7,605.6,852z
		 M770,756.9l-17.3-10c-2.3-1.3-2.3-4.7,0-6l27.7-16l-0.1,0.2l18.9,10.9c2.3,1.3,2.3,4.7,0,6l-25.7,14.9
		C772.4,757.5,771.1,757.5,770,756.9z M810.7,733.3l-17.3-10c-2.3-1.3-2.3-4.7,0-6l17.8-10.3c1.1-0.6,2.4-0.6,3.5,0l17.3,10
		c2.3,1.3,2.3,4.7,0,6l-17.8,10.3C813.1,733.9,811.8,733.9,810.7,733.3z M843.6,714.3l-17.3-10c-2.3-1.3-2.3-4.7,0-6l17.5-10.1
		c1.1-0.6,2.4-0.6,3.5,0l17.3,10c2.3,1.3,2.3,4.7,0,6L847,714.3C846,714.9,844.6,714.9,843.6,714.3z M897.2,685.3l-17.6,10.2
		c-1.1,0.6-2.4,0.6-3.5,0l-17.3-10c-2.3-1.3-2.3-4.7,0-6l17.6-10.2c1.1-0.6,2.4-0.6,3.5,0l17.3,10
		C899.5,680.6,899.5,683.9,897.2,685.3z"/>
	<path class="st6" d="M191.9,871.7l557.2-322.6c7.1-4.1,10.7-12.2,9.1-20.2l-106.1-458c-2.2-10.5-13.9-15.7-23.2-10.4l-553,319.4
		c-10.5,6.1-15.8,18.3-13,30.1L168,861.3C170.4,871.9,182.4,877.1,191.9,871.7z"/>
	<path class="st0" d="M539.3,990.9c0.7-5.8,1.2-11.1-1.2-14.5c-1.9-0.7-4.2-1.6-7.2-2.8c-10.2-4.2-4.9-3.8,4-2
		c-2.9-4.5-5.6-8.8-8.1-12.9c-4,1.3-8.4,2.5-11.1,2.8c-4.6,0.5,0.3-2.5,9.4-5.4c-2.9-4.6-5.8-8.8-8.8-12.4c-3,4.5-7.2,9.9-9.1,8.2
		c-2.5-2.1,2.3-6.1,7.6-10c-2.2-2.4-4.4-4.6-6.8-6.4c-2.8,4.7-9,14.2-13,11.9c-4.5-2.5,2.3-7.2,10.3-13.8
		c-21.7-9.5-33.3,6-29.8,12.9c-1.4,0-2.9,0-4.3,0.1c-8.5-0.1-21.1,0.9-39.5,4.2c-28.4,5.1-127.2,24.4-163.9,31.6
		c-0.3-0.2-0.5-0.5-0.8-0.7l68.2-15.2c16.4-3.7,32.5-8.2,47.9-13.5c1.3,0.4,2.8,0.7,4.5,1c10.4,1.4,20.6,0.1,29.2-7l0-3.2l5.1,0.9
		c0,0-1.5-2.8-3.8-5.6c11-5,21.4-10.4,31.3-16.2l0.2,0.4c0.5-0.3,1-0.6,1.4-0.9c1.5,2.2,4.5,4.2,10.6,0.8c-1.6-0.8-3.7-2.2-4.1-4.6
		c0,0,3.3,1.4,7.6,2.1c2.4-2.1,4.4-4.9,5.6-8.5c-7.3,1.6-11,0.3-12.1-0.2c0-0.1,0.1-0.2,0.1-0.3c1.6-0.4,7.4-1.7,12.8-2.8
		c1-4.7,0.8-10.6-1.2-17.9c-1.2,1-2.7,2.1-4.7,3.2c-6.3,3.5-1-1.3,3.9-5.9c-1.5-4.7-3.7-9.9-6.8-15.7c-0.2-1.7-0.4-3.4-0.6-5.2
		l-1.8,0.2c0.2,1.4,0.4,2.8,0.5,4.2c-2.2,3.9-4.4,7.8-6.5,11.8c3.8,8.8,5.2,12.8,2,11.3c-1.8-0.8-3.6-3.5-4.9-6
		c-1.4,2.6-2.7,5.2-3.9,7.8c1.2,1.8,2.8,4.4,3.9,7.1c3.1,7.9-3,1.3-6.1-2.3c-1.5,3.3-2.7,6.4-3.5,9.1c1.5,1.1,3.6,2.4,5.4,2.6
		c2.8,0.3-2,1.6-6.4,1.5c-0.8,4.5,2.7,6.4,7.3,6.6c-9.9,5.8-20.5,11.2-31.5,16.2c-1-1.1-2.2-2.2-3.4-3c0.4,0.1,0.7,0.2,1.1,0.2
		l0.4-1.8c-0.9-0.2-2-0.4-3.3-0.6c2.4-0.8,6.4-2.7,10.2-6.4l-3.9-12.5c0,0-7.1,8.3-12.8,9.2s10.4-11.7,10.4-11.7l-8.2-3.8
		c0,0-7.5,9.3-8.3,14.1c-0.8,4.7-3.7,4.4-4.3,0.1c-0.6-4.3,4.1-13.3,4.1-13.3s-9.8-3.4-21.7,2.9c-3,1.6-6.8,3.9-10.9,6.3
		c0-0.8,0-1.7,0-2.6c-1.3,0.8-2.6,1.6-3.9,2.4c2.7-5.4,2.5-11.1-1.5-16c-1.5,5.8-4.8,17.7-4.3,10.9c0.4-5.1,0.2-11.1,0.1-14.7
		c-2.7-1.9-6.2-3.7-10.6-5.1c-2.2-0.7-4.3-1.4-6.3-2c1.4,2.4,2.8,5.3,3.2,8.4c1,7.7-1.7,11.7-2.5,7.9c-0.7-3.3-0.7-10.2-8.8-18.9
		c-13.8-4.1-23.4-5.4-35.1-2c-0.5,0.2-1.1,0.3-1.6,0.5c5.7,4.6,16.1,13.5,14.7,16.1c-1.8,3.4-5-3.9-21.2-13.8
		c-7.6,3.1-10.6,5.7-18.3,7.7c-1.2-0.2-1.9-0.4-2-0.4l-0.2,0.9c0,0,0,0,0,0c0,0,0,0,0,0l-0.2,0.9c0.1,0,0.8,0.1,2.1,0.4
		c2.6,1.8,5.5,3.7,8.5,5.7c18.9,1.2,22.9,2,22.9,3.6c0,1.3-12.8-0.2-19-1c3.3,2.2,6.8,4.4,10.4,6.7c10.8,0.2,36.8,0.8,30.7,3.1
		c-5,1.9-13.4,3.4-18.7,4.3c6.1,3.7,12.3,7.2,18.1,10.2c10.9-0.8,14.1-6.6,18.4-5.8c1.6,0.3,1.8,2.6-7.9,6.8
		c-1.7,0.7-3.6,1.2-5.6,1.4c3.6,1.7,7,3.2,10.1,4.4l-23.3,17.2c-12.9,9.5-29.3,17.2-47.5,22.2l-5.2,1.4c-7.7-4.3-19-7.1-31.5-7.1
		c-9,0-17.4,1.4-24.2,3.8c-1.1,0.3-2.2,0.7-3.2,1c-1.1,0.3-2.2,0.7-3.2,1c-1.1,0.3-2.2,0.7-3.2,1c-1.1,0.3-2.2,0.7-3.2,1
		c-1.1,0.3-2.2,0.7-3.2,1c-1.1,0.3-2.2,0.7-3.2,1c-1.2,0.3-2.4,0.7-3.5,1.1c-1,0.3-2,0.6-2.9,0.9c-1.1,0.3-2.2,0.7-3.2,1
		c-1.1,0.3-2.2,0.7-3.2,1c-1.1,0.3-2.2,0.7-3.2,1c-1.1,0.3-2.2,0.7-3.2,1c-1.1,0.3-2.2,0.7-3.2,1c-1.1,0.3-2.2,0.7-3.2,1
		c-1.1,0.3-2.2,0.7-3.2,1c-1.1,0.3-2.2,0.7-3.2,1c-1.1,0.3-2.2,0.7-3.2,1c-1.1,0.3-2.2,0.7-3.2,1c-1.1,0.3-2.2,0.7-3.2,1
		c-1.1,0.3-2.2,0.7-3.2,1c-10.3,2.8-17.2,8.3-17.2,14.5c0,9.2,15,16.7,33.6,16.7c4.8,0,9.4-0.5,13.5-1.4c1.2-0.2,2.4-0.4,3.6-0.7
		c1.2-0.2,2.4-0.4,3.6-0.7c1.2-0.2,2.4-0.4,3.6-0.7c1.2-0.2,2.4-0.4,3.6-0.7c1.2-0.2,2.4-0.4,3.6-0.7c1.2-0.2,2.4-0.4,3.6-0.7
		c1.2-0.2,2.4-0.4,3.6-0.7c1.2-0.2,2.4-0.4,3.6-0.7c1.2-0.2,2.4-0.4,3.6-0.7c1.2-0.2,2.4-0.4,3.6-0.7c1.2-0.2,2.4-0.4,3.6-0.7
		c1.2-0.2,2.4-0.4,3.6-0.7c1.2-0.2,2.4-0.4,3.5-0.7c1.3-0.2,2.5-0.4,3.7-0.7c1.2-0.2,2.4-0.4,3.6-0.7c1.2-0.2,2.4-0.4,3.6-0.7
		c1.2-0.2,2.4-0.4,3.6-0.7c1.2-0.2,2.4-0.4,3.6-0.7c1.2-0.2,2.4-0.4,3.6-0.7c1.2-0.2,2.4-0.4,3.6-0.7c16.8-2.7,28.9-10.6,28.9-19.8
		c0-1.8-0.5-3.6-1.3-5.3l10-1.5c11.1-1.7,22.6-1.8,33.2-0.2l14,2.1c0.7,3.1,1.7,6.1,3,9.2c4.2-1.4,8.8-2.4,11.5-1.4
		c1.3,0.5-4.8,3.5-9.5,5.7c2.1,4.3,4.7,8.6,7.7,13c2.2-5.2,5.3-10.4,8.3-9.2c3.8,1.5-1.7,8.7-5.6,13.2c2.4,3.5,5.1,7,7.9,10.7
		c0.8,1.1,1.6,2.1,2.4,3.1c0-7.3,0.7-16.1,4.2-15.2c4.5,1.2,0.9,13.5-1,19.5c1.5,2.1,2.9,4.1,4.2,5.9c1.3-4.3,3.1-8.9,4.3-7.2
		c1.4,2,0,8.1-1.1,12.1c1.8,2.7,3.1,4.8,3.8,6.1c0,1.9-0.1,3.7-0.2,5.5l1.8,0.1c0.1-1.8,0.2-3.7,0.2-5.6c2.7-4.9,5.3-9.7,7.6-14.6
		c-3.4-1.9-9-5.2-8.4-6.1c0.5-0.8,5.7,1.7,9.5,3.7c1.6-3.6,2.9-7.3,3.8-11.1c-6-2-16.8-6-16.1-8c0.7-2,11.2,1.6,17,3.7
		c0.7-4.3,0.9-8.7,0.4-13.3c-11.3-5.4-21.9,0.9-24.8-0.3c-0.2-0.4-0.4-0.8-0.6-1.2c0.9-2.1,10.5-4.5,24.9-1.9
		c-0.7-3.7-1.8-7.5-3.4-11.4c-8.6,0.2-19,5.3-21.5,3.2c-2.8-2.3,1-3.3,20.4-5.7c-2.2-4.6-5.6-8-9.5-10.5c-8,4.8-11.2,9.1-14.3,8
		c-3.3-1.2,0.4-5.9,11.2-9.7c-9.3-4.5-20.7-4.5-28.7-1.9c1,2.1,2.2,5.1,1.8,7.2c-0.8-0.6-1.6-1.2-2.5-1.7l-1,1.5
		c0.2,0.1,0.3,0.2,0.4,0.3c-2.9-0.3-6.8,1-8,2.2l-13.8-2.1c-7.3-1.1-15-1.4-22.7-1l55.4-8.8c17.5-2.8,35.6-2.9,52.4-0.4l26.9,4
		c-0.7,1.1-1.4,2.2-2.1,3.4c1.8-0.6,3.8-1,5.7-1c11.4-0.2,12.9,1.8,11.8,2.6c-2.9,2.4-10-1.2-19.8,2.4c-2.6,4.8-5.1,10.2-7.4,15.6
		c5.1-1.4,13.4-3.4,19-3.8c6.9-0.5-14.5,10.3-23.4,14.6c-1.3,3.3-2.5,6.6-3.6,9.7c4.5-3.1,14.1-9.4,15.1-8.3
		c1.2,1.3-1.5,3.6-16.4,12c-1.1,3-2,5.8-2.9,8.4c-1.1,0.9-2.2,1.7-3.4,2.6l1.1,1.4c1.3-1,2.6-2,3.8-2.9c8.1-1.4,12.6-0.4,21.3-0.8
		c6.1-14.7,3.2-22,7.3-19.9c3.2,1.6,1.2,13.2-0.1,19.3c0.5-0.1,1.1-0.1,1.7-0.2c12.4-1.7,19.4-6.6,27.9-15.4
		c0.2-10.4-5.1-16.2-7-19.2c-2.2-3.4,3.1-1.2,8.1,5.7c2,2.7,3.1,5.7,3.7,8.3c1.2-1.3,2.4-2.7,3.7-4.2c2.6-2.9,4.2-5.7,5-8.4
		c-2.6-3.1-7-8.2-11.2-12.3c-5.7-5.5,6.1,3.2,11.8,7.4c-0.5-8.4-9.3-15-21.7-18c0.3-1.5,0.6-2.8,0.8-4.1c0.1-0.5,0.2-1,0.3-1.5
		l-1.8-0.3c-0.1,0.5-0.2,1-0.3,1.5c-0.2,1.1-0.4,2.4-0.7,3.8c-4.9-10.7-10.3-12.8-15.8-9.8c2,0.3,4.5,1.2,7.8,3.2
		c-3.2-1.4-7-1.8-9.8-1.9c-2.5,1.9-4.9,4.8-7.4,8.3l-27.8-4.2c-16.9-2.5-35.2-2.4-52.9,0.4l-77.6,12.4c0,0,0,0,0,0
		c37.5-7.3,134.6-26.4,162.7-31.4c20.5-3.7,33.6-4.4,41.9-4.1c-3.1,1.5-6.7,3.9-4.5,8.2c2.8,5.4,12.1,4.5,22.1,10.6
		c-1.2-5-0.8-10.5,2.6-9c4.2,1.8,2,7.8,4.2,12.9c4.2,2.2,8.7,4.3,13.4,6.3c-4.1-7.6,0.8-9,3.4-6c2.1,2.4,3.4,5.8,6.8,9.8
		c5.7,2.4,10,4.7,14.3,8.1c1,1.6,2,3.3,2.9,4.9l1.6-0.8C540.2,992.5,539.7,991.7,539.3,990.9z M379.5,938.2c-0.4,0.4-0.7,0.8-1,1.2
		l-3.2,1.4C376.2,939.9,377.6,939,379.5,938.2z M364.9,949.3c2,0.6,10.2,2.4,10.2,2.4s-2.6-4.1-1.4-8.1l3.1-1.4
		c-1.6,3.5-1.3,7.4,3.6,9.8c-14.7,5-30,9.3-45.7,12.8l-25.6,5.7c11.2-3.6,22-7.8,32.4-12.4l22.5-10.1
		C364.2,948.7,364.5,949.2,364.9,949.3z M267.6,978.6c18.4-5,35-12.8,48.1-22.4l23.9-17.6l5.9,3.9c0,0,3.1,0.7,6.8-0.2
		c2.2,1.3,4.7,2.6,7.3,3.8c0,0,0.2-8,2.9-11.4c0,0,0.2,7.2,1,11.5l-22.8,10.3c-19.1,8.6-39.8,15.5-61.6,20.5l-14.1,3.3
		c-0.3-0.2-0.6-0.4-0.9-0.6L267.6,978.6z"/>
	<linearGradient id="SVGID_2_" gradientUnits="userSpaceOnUse" x1="118.2418" y1="952.513" x2="194.1151" y2="952.513">
		<stop  offset="0" style="stop-color:#E7E7E7"/>
		<stop  offset="1" style="stop-color:#C8DCF0"/>
	</linearGradient>
	<path class="st7" d="M194.1,945.1c0.1-2.9-0.8-5.8-2.7-8c-6.9-7.8-19.9-12.9-35.2-12.9c-15.2,0-28.3,5.1-35.2,12.9
		c-1.9,2.2-2.9,5.1-2.7,8l0.9,20.4c0,8.9,20.3,15.3,37.1,15.3s37.1-3.7,37.1-15.3L194.1,945.1z"/>
	<ellipse class="st8" cx="156.2" cy="946.8" rx="33.6" ry="16.7"/>
	<linearGradient id="SVGID_3_" gradientUnits="userSpaceOnUse" x1="119.1104" y1="995.3542" x2="193.2467" y2="995.3542">
		<stop  offset="0" style="stop-color:#E7E7E7"/>
		<stop  offset="1" style="stop-color:#C8DCF0"/>
	</linearGradient>
	<path class="st9" d="M156.2,980.8c-16.8,0-30.8-6.2-37.1-15.3l1.6,36.9c0,12.8,15.6,22.8,35.5,22.8s35.5-10,35.5-22.8l1.6-36.9
		C187,974.6,172.9,980.8,156.2,980.8z"/>
	<g>
		<linearGradient id="SVGID_4_" gradientUnits="userSpaceOnUse" x1="689.3254" y1="600.5107" x2="98.6019" y2="316.6578">
			<stop  offset="0" style="stop-color:#CBDAFC"/>
			<stop  offset="1" style="stop-color:#CDF7FD"/>
		</linearGradient>
		<polygon class="st10" points="737.4,532.8 633.1,82 86.4,397.8 86.4,397.8 82,400.3 85.5,415.1 85.5,415.1 186.8,850.5 		"/>
		<g>
			<polygon class="st11" points="345.1,509.8 303.2,324 208.1,380.6 250,566.4 			"/>
			<g>
				<path class="st12" d="M303.4,416.3l-60,33.2c-1.3,0.7-2.8,0-3.2-1.4l-1-4.4c-0.4-1.9,0.4-3.8,2-4.8l60-33.2
					c1.3-0.7,2.8,0,3.2,1.4l1,4.4C305.9,413.4,305.1,415.3,303.4,416.3z"/>
				<path class="st12" d="M307.6,434.3l-60,33.2c-1.3,0.7-2.8,0-3.2-1.4l-1-4.4c-0.4-1.9,0.4-3.8,2-4.8l60-33.2
					c1.3-0.7,2.8,0,3.2,1.4l1,4.4C310,431.3,309.2,433.3,307.6,434.3z"/>
				<path class="st12" d="M301.2,465.9l-33.7,18.3c-1.3,0.7-2.8,0-3.2-1.4l-1-4.4c-0.4-1.9,0.4-3.8,2-4.8l33.7-18.3
					c1.3-0.7,2.8,0,3.2,1.4l1,4.4C303.6,462.9,302.8,464.9,301.2,465.9z"/>
				<path class="st12" d="M261.3,379L261.3,379c-7.7,4.6-11.5,13.8-9.5,22.7l0.9,3.8c1.5,6.8,8.9,10.1,14.7,6.6h0
					c7.6-4.6,11.5-13.7,9.5-22.6l-0.9-4C274.4,378.8,267,375.5,261.3,379z"/>
			</g>
		</g>
		<g>
			<polygon class="st11" points="454.1,444 412.2,258.2 317.1,314.8 359,500.6 			"/>
			<g>
				<path class="st12" d="M391.9,417l-34.4,19.8c-0.9,0.5-1.9,0-2.2-1l-0.7-3c-0.3-1.3,0.3-2.6,1.4-3.3l34.4-19.8
					c0.9-0.5,1.9,0,2.2,1l0.7,3C393.6,415,393,416.3,391.9,417z"/>
				<path class="st12" d="M381.4,400.6l-11.8-52.4c-0.3-1.1-1.5-1.7-2.5-1.1l-25.2,15c-1.3,0.8-1.9,2.3-1.6,3.8l11.8,52.4
					c0.3,1.1,1.5,1.7,2.5,1.1l25.2-15C381.1,403.6,381.7,402.1,381.4,400.6z"/>
				<path class="st12" d="M417.8,378.9L406,326.5c-0.3-1.1-1.5-1.7-2.5-1.1l-25.2,15c-1.3,0.8-1.9,2.3-1.6,3.8l11.8,52.4
					c0.3,1.1,1.5,1.7,2.5,1.1l25.2-15C417.5,381.9,418.2,380.3,417.8,378.9z"/>
				<path class="st12" d="M424.8,375.2c0.3,1.1,1.5,1.7,2.5,1.1l10.2-6.1l-12.9-57.1l-10,6c-1.3,0.8-1.9,2.3-1.6,3.8L424.8,375.2z"
					/>
				<polygon class="st12" points="355,482.9 450.1,426.3 449.7,424.5 354.6,481.1 				"/>
				<path class="st12" d="M401.7,285.3l-55.6,33.4c-0.9,0.5-1.9,0-2.2-1l-0.7-3c-0.3-1.3,0.3-2.6,1.4-3.3l55.6-33.4
					c0.9-0.5,1.9,0,2.2,1l0.7,3C403.4,283.3,402.8,284.6,401.7,285.3z"/>
				<path class="st12" d="M372.5,333.1l-34.4,19.8c-0.9,0.5-1.9,0-2.2-1l-0.7-3c-0.3-1.3,0.3-2.6,1.4-3.3l34.4-19.8
					c0.9-0.5,1.9,0,2.2,1l0.7,3C374.2,331.1,373.6,332.4,372.5,333.1z"/>
				<path class="st12" d="M379.2,308.4l-31.6,19c-0.5,0.3-1.1,0-1.2-0.6l-0.4-1.7c-0.2-0.7,0.2-1.5,0.8-1.9l31.6-19
					c0.5-0.3,1.1,0,1.2,0.6l0.4,1.7C380.2,307.3,379.9,308.1,379.2,308.4z"/>
				<path class="st12" d="M332.4,316.4L332.4,316.4c-2.6,1.6-4,4.7-3.3,7.8l0.3,1.3c0.5,2.3,3.1,3.5,5.1,2.3v0
					c2.6-1.6,3.9-4.7,3.3-7.8l-0.3-1.4C336.9,316.3,334.4,315.2,332.4,316.4z"/>
				<g>
					<path class="st12" d="M365,474.9l29.2-17.4l-5.7-25.4c-0.3-1.1-1.5-1.7-2.5-1.1l-25.2,15c-1.3,0.8-1.9,2.3-1.6,3.8L365,474.9z"
						/>
					<path class="st12" d="M401.4,453.2l29.2-17.4l-5.7-25.4c-0.3-1.1-1.5-1.7-2.5-1.1l-25.2,15c-1.3,0.8-1.9,2.3-1.6,3.8
						L401.4,453.2z"/>
					<path class="st12" d="M443.5,397l-10,6c-1.3,0.8-1.9,2.3-1.6,3.8l5.6,25l12.1-7.2L443.5,397z"/>
				</g>
				<path class="st12" d="M374.1,476.1L374.1,476.1c-2.3,1.4-3.5,4.2-2.9,6.9l0.3,1.2c0.5,2.1,2.7,3.1,4.5,2l0,0
					c2.3-1.4,3.5-4.2,2.9-6.9l-0.3-1.2C378.1,476,375.8,475,374.1,476.1z"/>
				<path class="st12" d="M392.4,465.1L392.4,465.1c-2.3,1.4-3.5,4.2-2.9,6.9l0.3,1.2c0.5,2.1,2.7,3.1,4.5,2l0,0
					c2.3-1.4,3.5-4.2,2.9-6.9l-0.3-1.2C396.4,465.1,394.1,464.1,392.4,465.1z"/>
				<path class="st12" d="M408.8,455.4L408.8,455.4c-2.3,1.4-3.5,4.2-2.9,6.9l0.3,1.2c0.5,2.1,2.7,3.1,4.5,2h0
					c2.3-1.4,3.5-4.2,2.9-6.9l-0.3-1.2C412.8,455.3,410.5,454.3,408.8,455.4z"/>
				<path class="st12" d="M424.7,445.9L424.7,445.9c-2.3,1.4-3.5,4.2-2.9,6.9l0.3,1.2c0.5,2.1,2.7,3.1,4.5,2l0,0
					c2.3-1.4,3.5-4.2,2.9-6.9l-0.3-1.2C428.7,445.8,426.5,444.8,424.7,445.9z"/>
				<path class="st12" d="M439,437.4L439,437.4c-2.3,1.4-3.5,4.2-2.9,6.9l0.3,1.2c0.5,2.1,2.7,3.1,4.5,2h0c2.3-1.4,3.5-4.2,2.9-6.9
					l-0.3-1.2C443,437.4,440.8,436.4,439,437.4z"/>
			</g>
		</g>
		<g>
			<polygon class="st11" points="669.4,315.8 627.5,130 532.4,186.6 574.2,372.4 			"/>
			<g>
				<path class="st12" d="M607.2,288.8l-34.4,19.8c-0.9,0.5-1.9,0-2.2-1l-0.7-3c-0.3-1.3,0.3-2.6,1.4-3.3l34.4-19.8
					c0.9-0.5,1.9,0,2.2,1l0.7,3C608.9,286.8,608.3,288.2,607.2,288.8z"/>
				<path class="st12" d="M596.7,272.5l-11.8-52.4c-0.3-1.1-1.5-1.7-2.5-1.1l-25.2,15c-1.3,0.8-1.9,2.3-1.6,3.8l11.8,52.4
					c0.3,1.1,1.5,1.7,2.5,1.1l25.2-15C596.4,275.5,597,273.9,596.7,272.5z"/>
				<path class="st12" d="M633.1,250.7l-11.8-52.4c-0.3-1.1-1.5-1.7-2.5-1.1l-25.2,15c-1.3,0.8-1.9,2.3-1.6,3.8l11.8,52.4
					c0.3,1.1,1.5,1.7,2.5,1.1l25.2-15C632.8,253.7,633.4,252.2,633.1,250.7z"/>
				<path class="st12" d="M640.1,247c0.3,1.1,1.5,1.7,2.5,1.1l10.2-6.1l-12.9-57.1l-10,6c-1.3,0.8-1.9,2.3-1.6,3.8L640.1,247z"/>
				<polygon class="st12" points="570.3,354.7 665.4,298.1 665,296.4 569.9,353 				"/>
				<path class="st12" d="M617,157.1l-55.6,33.4c-0.9,0.5-1.9,0-2.2-1l-0.7-3c-0.3-1.3,0.3-2.6,1.4-3.3l55.6-33.4
					c0.9-0.5,1.9,0,2.2,1l0.7,3C618.7,155.2,618.1,156.5,617,157.1z"/>
				<path class="st12" d="M587.8,204.9l-34.4,19.8c-0.9,0.5-1.9,0-2.2-1l-0.7-3c-0.3-1.3,0.3-2.6,1.4-3.3l34.4-19.8
					c0.9-0.5,1.9,0,2.2,1l0.7,3C589.5,202.9,588.9,204.2,587.8,204.9z"/>
				<path class="st12" d="M594.5,180.3l-31.6,19c-0.5,0.3-1.1,0-1.2-0.6l-0.4-1.7c-0.2-0.7,0.2-1.5,0.8-1.9l31.6-19
					c0.5-0.3,1.1,0,1.2,0.6l0.4,1.7C595.5,179.2,595.2,179.9,594.5,180.3z"/>
				<path class="st12" d="M547.7,188.2L547.7,188.2c-2.6,1.6-4,4.7-3.3,7.8l0.3,1.3c0.5,2.3,3.1,3.5,5.1,2.3v0
					c2.6-1.6,3.9-4.7,3.3-7.8l-0.3-1.4C552.2,188.1,549.7,187,547.7,188.2z"/>
				<g>
					<path class="st12" d="M580.3,346.8l29.2-17.4l-5.7-25.4c-0.3-1.1-1.5-1.7-2.5-1.1l-25.2,15c-1.3,0.8-1.9,2.3-1.6,3.8
						L580.3,346.8z"/>
					<path class="st12" d="M616.7,325.1l29.2-17.4l-5.7-25.4c-0.3-1.1-1.5-1.7-2.5-1.1l-25.2,15c-1.3,0.8-1.9,2.3-1.6,3.8
						L616.7,325.1z"/>
					<path class="st12" d="M658.8,268.8l-10,6c-1.3,0.8-1.9,2.3-1.6,3.8l5.6,25l12.1-7.2L658.8,268.8z"/>
				</g>
				<path class="st12" d="M589.4,347.9L589.4,347.9c-2.3,1.4-3.5,4.2-2.9,6.9l0.3,1.2c0.5,2.1,2.7,3.1,4.5,2l0,0
					c2.3-1.4,3.5-4.2,2.9-6.9l-0.3-1.2C593.4,347.9,591.1,346.9,589.4,347.9z"/>
				<path class="st12" d="M607.7,337L607.7,337c-2.3,1.4-3.5,4.2-2.9,6.9l0.3,1.2c0.5,2.1,2.7,3.1,4.5,2l0,0
					c2.3-1.4,3.5-4.2,2.9-6.9l-0.3-1.2C611.7,336.9,609.4,335.9,607.7,337z"/>
				<path class="st12" d="M624.1,327.2L624.1,327.2c-2.3,1.4-3.5,4.2-2.9,6.9l0.3,1.2c0.5,2.1,2.7,3.1,4.5,2l0,0
					c2.3-1.4,3.5-4.2,2.9-6.9l-0.3-1.2C628.1,327.2,625.8,326.2,624.1,327.2z"/>
				<path class="st12" d="M640,317.7L640,317.7c-2.3,1.4-3.5,4.2-2.9,6.9l0.3,1.2c0.5,2.1,2.7,3.1,4.5,2l0,0
					c2.3-1.4,3.5-4.2,2.9-6.9l-0.3-1.2C644,317.7,641.8,316.7,640,317.7z"/>
				<path class="st12" d="M654.3,309.3L654.3,309.3c-2.3,1.4-3.5,4.2-2.9,6.9l0.3,1.2c0.5,2.1,2.7,3.1,4.5,2l0,0
					c2.3-1.4,3.5-4.2,2.9-6.9l-0.3-1.2C658.3,309.2,656.1,308.2,654.3,309.3z"/>
			</g>
		</g>
		<g>
			<polygon class="st11" points="562.3,380.5 520.4,194.7 425.3,251.3 467.2,437.1 			"/>
			<g>
				<path class="st12" d="M500.1,353.5l-34.4,19.8c-0.9,0.5-1.9,0-2.2-1l-0.7-3c-0.3-1.3,0.3-2.6,1.4-3.3l34.4-19.8
					c0.9-0.5,1.9,0,2.2,1l0.7,3C501.8,351.5,501.2,352.8,500.1,353.5z"/>
				<path class="st12" d="M489.6,337.1l-11.8-52.4c-0.3-1.1-1.5-1.7-2.5-1.1l-25.2,15c-1.3,0.8-1.9,2.3-1.6,3.8l11.8,52.4
					c0.3,1.1,1.5,1.7,2.5,1.1l25.2-15C489.3,340.1,489.9,338.6,489.6,337.1z"/>
				<polygon class="st12" points="463.2,419.4 558.3,362.8 557.9,361 462.8,417.6 				"/>
				<path class="st12" d="M510,221.8l-55.6,33.4c-0.9,0.5-1.9,0-2.2-1l-0.7-3c-0.3-1.3,0.3-2.6,1.4-3.3l55.6-33.4
					c0.9-0.5,1.9,0,2.2,1l0.7,3C511.6,219.8,511.1,221.1,510,221.8z"/>
				<path class="st12" d="M480.7,269.6l-34.4,19.8c-0.9,0.5-1.9,0-2.2-1l-0.7-3c-0.3-1.3,0.3-2.6,1.4-3.3l34.4-19.8
					c0.9-0.5,1.9,0,2.2,1l0.7,3C482.4,267.6,481.8,268.9,480.7,269.6z"/>
				<path class="st12" d="M487.5,245l-31.6,19c-0.5,0.3-1.1,0-1.2-0.6l-0.4-1.7c-0.2-0.7,0.2-1.5,0.8-1.9l31.6-19
					c0.5-0.3,1.1,0,1.2,0.6l0.4,1.7C488.4,243.8,488.1,244.6,487.5,245z"/>
				<path class="st12" d="M525.6,269.6l-38,22c-0.9,0.5-1.9,0-2.2-1l-0.7-3c-0.3-1.3,0.3-2.6,1.4-3.3l38-22c0.9-0.5,1.9,0,2.2,1
					l0.7,3C527.3,267.6,526.7,268.9,525.6,269.6z"/>
				<path class="st12" d="M508.2,289.2l-19.1,11.1c-0.5,0.3-1.1,0-1.2-0.6l-0.4-1.7c-0.2-0.7,0.2-1.5,0.8-1.9l19.1-11.1
					c0.5-0.3,1.1,0,1.2,0.6l0.4,1.7C509.1,288.1,508.8,288.9,508.2,289.2z"/>
				<path class="st12" d="M530.9,292.7l-38.5,21c-0.5,0.3-1.1,0-1.2-0.6l-0.4-1.7c-0.2-0.7,0.2-1.5,0.8-1.9l38.5-21
					c0.5-0.3,1.1,0,1.2,0.6l0.4,1.7C531.9,291.6,531.6,292.3,530.9,292.7z"/>
				<path class="st12" d="M532.8,300.3l-38.5,21c-0.5,0.3-1.1,0-1.2-0.6l-0.4-1.7c-0.2-0.7,0.2-1.5,0.8-1.9l38.5-21
					c0.5-0.3,1.1,0,1.2,0.6l0.4,1.7C533.8,299.2,533.5,299.9,532.8,300.3z"/>
				<path class="st12" d="M525.6,313l-29.3,15.9c-0.5,0.3-1.1,0-1.2-0.6l-0.4-1.7c-0.2-0.7,0.2-1.5,0.8-1.9l29.3-15.9
					c0.5-0.3,1.1,0,1.2,0.6l0.4,1.7C526.5,311.8,526.2,312.6,525.6,313z"/>
				<path class="st12" d="M440.6,252.9L440.6,252.9c-2.6,1.6-4,4.7-3.3,7.8l0.3,1.3c0.5,2.3,3.1,3.5,5.1,2.3h0
					c2.6-1.6,3.9-4.7,3.3-7.8l-0.3-1.4C445.1,252.8,442.6,251.7,440.6,252.9z"/>
				<g>
					<path class="st12" d="M473.2,411.4l29.2-17.4l-5.7-25.4c-0.3-1.1-1.5-1.7-2.5-1.1l-25.2,15c-1.3,0.8-1.9,2.3-1.6,3.8
						L473.2,411.4z"/>
					<path class="st12" d="M509.7,389.7l29.2-17.4l-5.7-25.4c-0.3-1.1-1.5-1.7-2.5-1.1l-25.2,15c-1.3,0.8-1.9,2.3-1.6,3.8
						L509.7,389.7z"/>
					<path class="st12" d="M551.7,333.5l-10,6c-1.3,0.8-1.9,2.3-1.6,3.8l5.6,25l12.1-7.2L551.7,333.5z"/>
				</g>
				<path class="st12" d="M482.3,412.6L482.3,412.6c-2.3,1.4-3.5,4.2-2.9,6.9l0.3,1.2c0.5,2.1,2.7,3.1,4.5,2h0
					c2.3-1.4,3.5-4.2,2.9-6.9l-0.3-1.2C486.3,412.5,484.1,411.5,482.3,412.6z"/>
				<path class="st12" d="M500.6,401.6L500.6,401.6c-2.3,1.4-3.5,4.2-2.9,6.9l0.3,1.2c0.5,2.1,2.7,3.1,4.5,2h0
					c2.3-1.4,3.5-4.2,2.9-6.9l-0.3-1.2C504.6,401.6,502.4,400.6,500.6,401.6z"/>
				<path class="st12" d="M517,391.9L517,391.9c-2.3,1.4-3.5,4.2-2.9,6.9l0.3,1.2c0.5,2.1,2.7,3.1,4.5,2l0,0
					c2.3-1.4,3.5-4.2,2.9-6.9l-0.3-1.2C521,391.8,518.8,390.8,517,391.9z"/>
				<path class="st12" d="M533,382.4L533,382.4c-2.3,1.4-3.5,4.2-2.9,6.9l0.3,1.2c0.5,2.1,2.7,3.1,4.5,2l0,0
					c2.3-1.4,3.5-4.2,2.9-6.9l-0.3-1.2C537,382.3,534.7,381.3,533,382.4z"/>
				<path class="st12" d="M547.3,373.9L547.3,373.9c-2.3,1.4-3.5,4.2-2.9,6.9l0.3,1.2c0.5,2.1,2.7,3.1,4.5,2h0
					c2.3-1.4,3.5-4.2,2.9-6.9l-0.3-1.2C551.3,373.9,549,372.9,547.3,373.9z"/>
			</g>
		</g>
		<g>
			<polygon class="st11" points="500.9,648.3 459,462.5 363.9,519.1 405.8,704.9 			"/>
			<g>
				<path class="st12" d="M470.6,647.8L415,681.2c-0.9,0.5-1.9,0-2.2-1l-0.7-3c-0.3-1.3,0.3-2.6,1.4-3.3l55.6-33.4
					c0.9-0.5,1.9,0,2.2,1l0.7,3C472.3,645.8,471.7,647.1,470.6,647.8z"/>
				<path class="st12" d="M484,630.4L484,630.4c-2.6,1.6-4,4.7-3.3,7.8l0.3,1.3c0.5,2.3,3.1,3.5,5.1,2.3l0,0
					c2.6-1.6,3.9-4.7,3.3-7.8l-0.3-1.4C488.5,630.4,486,629.2,484,630.4z"/>
				<polygon class="st12" points="401.8,687.2 496.9,630.6 496.5,628.8 401.4,685.4 				"/>
				<polygon class="st11" points="401.8,687.2 496.9,630.6 500.9,648.3 405.8,704.9 				"/>
				<path class="st12" d="M448.6,489.6L393,523c-0.9,0.5-1.9,0-2.2-1l-0.7-3c-0.3-1.3,0.3-2.6,1.4-3.3l55.6-33.4
					c0.9-0.5,1.9,0,2.2,1l0.7,3C450.2,487.6,449.7,488.9,448.6,489.6z"/>
				<path class="st12" d="M444.1,533.3l-55.6,33.4c-0.9,0.5-1.9,0-2.2-1l-0.7-3c-0.3-1.3,0.3-2.6,1.4-3.3l55.6-33.4
					c0.9-0.5,1.9,0,2.2,1l0.7,3C445.8,531.3,445.2,532.6,444.1,533.3z"/>
				<path class="st12" d="M426.1,512.8l-31.6,19c-0.5,0.3-1.1,0-1.2-0.6l-0.4-1.7c-0.2-0.7,0.2-1.5,0.8-1.9l31.6-19
					c0.5-0.3,1.1,0,1.2,0.6l0.4,1.7C427,511.6,426.7,512.4,426.1,512.8z"/>
				<path class="st12" d="M379.2,520.7L379.2,520.7c-2.6,1.6-4,4.7-3.3,7.8l0.3,1.3c0.5,2.3,3.1,3.5,5.1,2.3l0,0
					c2.6-1.6,3.9-4.7,3.3-7.8l-0.3-1.4C383.7,520.6,381.2,519.5,379.2,520.7z"/>
				<path class="st12" d="M457.5,515.9L457.5,515.9c-2.6,1.6-4,4.7-3.3,7.8l0.3,1.3c0.5,2.3,3.1,3.5,5.1,2.3l0,0
					c2.6-1.6,3.9-4.7,3.3-7.8l-0.3-1.4C462.1,515.9,459.5,514.7,457.5,515.9z"/>
				<path class="st12" d="M449.4,556.2l-55.6,33.4c-0.9,0.5-1.9,0-2.2-1l-0.7-3c-0.3-1.3,0.3-2.6,1.4-3.3l55.6-33.4
					c0.9-0.5,1.9,0,2.2,1l0.7,3C451.1,554.2,450.5,555.5,449.4,556.2z"/>
				<path class="st12" d="M462.8,538.8L462.8,538.8c-2.6,1.6-4,4.7-3.3,7.8l0.3,1.3c0.5,2.3,3.1,3.5,5.1,2.3h0
					c2.6-1.6,3.9-4.7,3.3-7.8l-0.3-1.4C467.3,538.8,464.8,537.6,462.8,538.8z"/>
				<path class="st12" d="M454.7,579.1l-55.6,33.4c-0.9,0.5-1.9,0-2.2-1l-0.7-3c-0.3-1.3,0.3-2.6,1.4-3.3l55.6-33.4
					c0.9-0.5,1.9,0,2.2,1l0.7,3C456.4,577.1,455.8,578.4,454.7,579.1z"/>
				<path class="st12" d="M468.1,561.7L468.1,561.7c-2.6,1.6-4,4.7-3.3,7.8l0.3,1.3c0.5,2.3,3.1,3.5,5.1,2.3l0,0
					c2.6-1.6,3.9-4.7,3.3-7.8l-0.3-1.4C472.6,561.7,470.1,560.5,468.1,561.7z"/>
				<path class="st12" d="M460,602l-55.6,33.4c-0.9,0.5-1.9,0-2.2-1l-0.7-3c-0.3-1.3,0.3-2.6,1.4-3.3l55.6-33.4c0.9-0.5,1.9,0,2.2,1
					l0.7,3C461.7,600,461.1,601.3,460,602z"/>
				<path class="st12" d="M473.4,584.6L473.4,584.6c-2.6,1.6-4,4.7-3.3,7.8l0.3,1.3c0.5,2.3,3.1,3.5,5.1,2.3h0
					c2.6-1.6,3.9-4.7,3.3-7.8l-0.3-1.4C477.9,584.6,475.4,583.4,473.4,584.6z"/>
				<path class="st12" d="M465.3,624.9l-55.6,33.4c-0.9,0.5-1.9,0-2.2-1l-0.7-3c-0.3-1.3,0.3-2.6,1.4-3.3l55.6-33.4
					c0.9-0.5,1.9,0,2.2,1l0.7,3C467,622.9,466.4,624.2,465.3,624.9z"/>
				<path class="st12" d="M478.7,607.5L478.7,607.5c-2.6,1.6-4,4.7-3.3,7.8l0.3,1.3c0.5,2.3,3.1,3.5,5.1,2.3l0,0
					c2.6-1.6,3.9-4.7,3.3-7.8l-0.3-1.4C483.2,607.5,480.7,606.3,478.7,607.5z"/>
				<path class="st12" d="M420.9,680.4L420.9,680.4c-2.3,1.4-3.5,4.2-2.9,6.9l0.3,1.2c0.5,2.1,2.7,3.1,4.5,2l0,0
					c2.3-1.4,3.5-4.2,2.9-6.9l-0.3-1.2C424.9,680.3,422.7,679.3,420.9,680.4z"/>
				<path class="st12" d="M439.2,669.4L439.2,669.4c-2.3,1.4-3.5,4.2-2.9,6.9l0.3,1.2c0.5,2.1,2.7,3.1,4.5,2l0,0
					c2.3-1.4,3.5-4.2,2.9-6.9l-0.3-1.2C443.2,669.4,441,668.4,439.2,669.4z"/>
				<path class="st12" d="M455.6,659.7L455.6,659.7c-2.3,1.4-3.5,4.2-2.9,6.9l0.3,1.2c0.5,2.1,2.7,3.1,4.5,2l0,0
					c2.3-1.4,3.5-4.2,2.9-6.9l-0.3-1.2C459.6,659.6,457.4,658.6,455.6,659.7z"/>
				<path class="st12" d="M471.6,650.2L471.6,650.2c-2.3,1.4-3.5,4.2-2.9,6.9l0.3,1.2c0.5,2.1,2.7,3.1,4.5,2l0,0
					c2.3-1.4,3.5-4.2,2.9-6.9l-0.3-1.2C475.6,650.2,473.3,649.1,471.6,650.2z"/>
				<path class="st12" d="M485.9,641.7L485.9,641.7c-2.3,1.4-3.5,4.2-2.9,6.9l0.3,1.2c0.5,2.1,2.7,3.1,4.5,2l0,0
					c2.3-1.4,3.5-4.2,2.9-6.9l-0.3-1.2C489.9,641.7,487.6,640.7,485.9,641.7z"/>
			</g>
		</g>
		<g>
			<polygon class="st11" points="716.2,520.1 674.3,334.3 579.2,390.9 621.1,576.7 			"/>
			<g>
				<path class="st12" d="M685.3,430.7l-7.2-31.2c-0.3-1.1-1.5-1.7-2.5-1.1l-71.5,39.8c-1.3,0.8-1.9,2.3-1.6,3.8l7.2,31.2
					c0.3,1.1,1.5,1.7,2.5,1.1l71.5-39.8C685,433.7,685.6,432.2,685.3,430.7z"/>
				<polygon class="st12" points="617.1,559 712.2,502.4 711.8,500.7 616.7,557.3 				"/>
				<path class="st12" d="M663.9,361.5l-55.6,33.4c-0.9,0.5-1.9,0-2.2-1l-0.7-3c-0.3-1.3,0.3-2.6,1.4-3.3l55.6-33.4
					c0.9-0.5,1.9,0,2.2,1l0.7,3C665.5,359.5,665,360.8,663.9,361.5z"/>
				<path class="st12" d="M634.6,409.2L600.2,429c-0.9,0.5-1.9,0-2.2-1l-0.7-3c-0.3-1.3,0.3-2.6,1.4-3.3l34.4-19.8
					c0.9-0.5,1.9,0,2.2,1l0.7,3C636.3,407.2,635.7,408.5,634.6,409.2z"/>
				<path class="st12" d="M641.4,384.6l-31.6,19c-0.5,0.3-1.1,0-1.2-0.6l-0.4-1.7c-0.2-0.7,0.2-1.5,0.8-1.9l31.6-19
					c0.5-0.3,1.1,0,1.2,0.6l0.4,1.7C642.3,383.5,642,384.2,641.4,384.6z"/>
				<path class="st12" d="M594.5,392.5L594.5,392.5c-2.6,1.6-4,4.7-3.3,7.8l0.3,1.3c0.5,2.3,3.1,3.5,5.1,2.3l0,0
					c2.6-1.6,3.9-4.7,3.3-7.8l-0.3-1.4C599,392.5,596.5,391.3,594.5,392.5z"/>
				<path class="st12" d="M636.2,552.2L636.2,552.2c-2.3,1.4-3.5,4.2-2.9,6.9l0.3,1.2c0.5,2.1,2.7,3.1,4.5,2l0,0
					c2.3-1.4,3.5-4.2,2.9-6.9l-0.3-1.2C640.2,552.2,638,551.2,636.2,552.2z"/>
				<path class="st12" d="M654.5,541.3L654.5,541.3c-2.3,1.4-3.5,4.2-2.9,6.9l0.3,1.2c0.5,2.1,2.7,3.1,4.5,2l0,0
					c2.3-1.4,3.5-4.2,2.9-6.9l-0.3-1.2C658.5,541.2,656.3,540.2,654.5,541.3z"/>
				<path class="st12" d="M670.9,531.5L670.9,531.5c-2.3,1.4-3.5,4.2-2.9,6.9l0.3,1.2c0.5,2.1,2.7,3.1,4.5,2l0,0
					c2.3-1.4,3.5-4.2,2.9-6.9l-0.3-1.2C674.9,531.5,672.7,530.5,670.9,531.5z"/>
				<path class="st12" d="M686.9,522L686.9,522c-2.3,1.4-3.5,4.2-2.9,6.9l0.3,1.2c0.5,2.1,2.7,3.1,4.5,2l0,0
					c2.3-1.4,3.5-4.2,2.9-6.9l-0.3-1.2C690.8,522,688.6,521,686.9,522z"/>
				<path class="st12" d="M701.2,513.6L701.2,513.6c-2.3,1.4-3.5,4.2-2.9,6.9l0.3,1.2c0.5,2.1,2.7,3.1,4.5,2l0,0
					c2.3-1.4,3.5-4.2,2.9-6.9l-0.3-1.2C705.2,513.5,702.9,512.5,701.2,513.6z"/>
			</g>
			<path class="st12" d="M671.4,462l-55.6,33.4c-0.9,0.5-1.9,0-2.2-1l-0.7-3c-0.3-1.3,0.3-2.6,1.4-3.3l55.6-33.4
				c0.9-0.5,1.9,0,2.2,1l0.7,3C673.1,460,672.5,461.3,671.4,462z"/>
			<path class="st12" d="M684.8,444.6L684.8,444.6c-2.6,1.6-4,4.7-3.3,7.8l0.3,1.3c0.5,2.3,3.1,3.5,5.1,2.3h0
				c2.6-1.6,3.9-4.7,3.3-7.8l-0.3-1.4C689.4,444.6,686.8,443.5,684.8,444.6z"/>
			<path class="st12" d="M676.7,484.9l-55.6,33.4c-0.9,0.5-1.9,0-2.2-1l-0.7-3c-0.3-1.3,0.3-2.6,1.4-3.3l55.6-33.4
				c0.9-0.5,1.9,0,2.2,1l0.7,3C678.4,482.9,677.8,484.2,676.7,484.9z"/>
			<path class="st12" d="M690.1,467.5L690.1,467.5c-2.6,1.6-4,4.7-3.3,7.8l0.3,1.3c0.5,2.3,3.1,3.5,5.1,2.3v0
				c2.6-1.6,3.9-4.7,3.3-7.8l-0.3-1.4C694.6,467.5,692.1,466.4,690.1,467.5z"/>
			<path class="st12" d="M682,507.8l-55.6,33.4c-0.9,0.5-1.9,0-2.2-1l-0.7-3c-0.3-1.3,0.3-2.6,1.4-3.3l55.6-33.4
				c0.9-0.5,1.9,0,2.2,1l0.7,3C683.7,505.8,683.1,507.1,682,507.8z"/>
			<path class="st12" d="M695.4,490.4L695.4,490.4c-2.6,1.6-4,4.7-3.3,7.8l0.3,1.3c0.5,2.3,3.1,3.5,5.1,2.3l0,0
				c2.6-1.6,3.9-4.7,3.3-7.8l-0.3-1.4C699.9,490.4,697.4,489.3,695.4,490.4z"/>
		</g>
		<g>
			<polygon class="st11" points="609.2,584.8 567.3,399 472.1,455.6 514,641.4 			"/>
			<g>
				<path class="st12" d="M536.5,541.4L524.6,489c-0.3-1.1-1.5-1.7-2.5-1.1l-25.2,15c-1.3,0.8-1.9,2.3-1.6,3.8l11.8,52.4
					c0.3,1.1,1.5,1.7,2.5,1.1l25.2-15C536.1,544.4,536.8,542.9,536.5,541.4z"/>
				<polygon class="st12" points="510,623.7 605.2,567.1 604.8,565.3 509.6,621.9 				"/>
				<path class="st12" d="M556.8,426.1l-55.6,33.4c-0.9,0.5-1.9,0-2.2-1l-0.7-3c-0.3-1.3,0.3-2.6,1.4-3.3l55.6-33.4
					c0.9-0.5,1.9,0,2.2,1l0.7,3C558.5,424.1,557.9,425.5,556.8,426.1z"/>
				<path class="st12" d="M527.6,473.9l-34.4,19.8c-0.9,0.5-1.9,0-2.2-1l-0.7-3c-0.3-1.3,0.3-2.6,1.4-3.3l34.4-19.8
					c0.9-0.5,1.9,0,2.2,1l0.7,3C529.2,471.9,528.7,473.2,527.6,473.9z"/>
				<path class="st12" d="M534.3,449.3l-31.6,19c-0.5,0.3-1.1,0-1.2-0.6l-0.4-1.7c-0.2-0.7,0.2-1.5,0.8-1.9l31.6-19
					c0.5-0.3,1.1,0,1.2,0.6l0.4,1.7C535.3,448.1,534.9,448.9,534.3,449.3z"/>
				<path class="st12" d="M572.4,473.9l-38,22c-0.9,0.5-1.9,0-2.2-1l-0.7-3c-0.3-1.3,0.3-2.6,1.4-3.3l38-22c0.9-0.5,1.9,0,2.2,1
					l0.7,3C574.1,471.9,573.6,473.2,572.4,473.9z"/>
				<path class="st12" d="M555,493.5l-19.1,11.1c-0.5,0.3-1.1,0-1.2-0.6l-0.4-1.7c-0.2-0.7,0.2-1.5,0.8-1.9l19.1-11.1
					c0.5-0.3,1.1,0,1.2,0.6l0.4,1.7C556,492.4,555.7,493.2,555,493.5z"/>
				<path class="st12" d="M577.8,497l-38.5,21c-0.5,0.3-1.1,0-1.2-0.6l-0.4-1.7c-0.2-0.7,0.2-1.5,0.8-1.9l38.5-21
					c0.5-0.3,1.1,0,1.2,0.6l0.4,1.7C578.7,495.9,578.4,496.6,577.8,497z"/>
				<path class="st12" d="M579.7,504.6l-38.5,21c-0.5,0.3-1.1,0-1.2-0.6l-0.4-1.7c-0.2-0.7,0.2-1.5,0.8-1.9l38.5-21
					c0.5-0.3,1.1,0,1.2,0.6l0.4,1.7C580.6,503.5,580.3,504.2,579.7,504.6z"/>
				<path class="st12" d="M572.4,517.3l-29.3,15.9c-0.5,0.3-1.1,0-1.2-0.6l-0.4-1.7c-0.2-0.7,0.2-1.5,0.8-1.9l29.3-15.9
					c0.5-0.3,1.1,0,1.2,0.6l0.4,1.7C573.4,516.1,573,516.9,572.4,517.3z"/>
				<path class="st12" d="M549.5,598.2l-10.1-44.7c-0.3-1.1-1.5-1.7-2.5-1.1l-25.2,15c-1.3,0.8-1.9,2.3-1.6,3.8l10,44.5L549.5,598.2
					z"/>
				<path class="st12" d="M587.2,538.3l-38,22c-0.9,0.5-1.9,0-2.2-1l-0.7-3c-0.3-1.3,0.3-2.6,1.4-3.3l38-22c0.9-0.5,1.9,0,2.2,1
					l0.7,3C588.9,536.3,588.4,537.6,587.2,538.3z"/>
				<path class="st12" d="M569.8,558L550.7,569c-0.5,0.3-1.1,0-1.2-0.6l-0.4-1.7c-0.2-0.7,0.2-1.5,0.8-1.9l19.1-11.1
					c0.5-0.3,1.1,0,1.2,0.6l0.4,1.7C570.8,556.8,570.5,557.6,569.8,558z"/>
				<g>
					<path class="st12" d="M591.9,559.8l-37.8,22.6c-0.5,0.3-1.1,0-1.2-0.6l-0.4-1.7c-0.2-0.7,0.2-1.5,0.8-1.9l37.8-22.6
						c0.5-0.3,1.1,0,1.2,0.6l0.4,1.7C592.8,558.6,592.5,559.4,591.9,559.8z"/>
					<path class="st12" d="M593.8,567.4L556,590c-0.5,0.3-1.1,0-1.2-0.6l-0.4-1.7c-0.2-0.7,0.2-1.5,0.8-1.9l37.8-22.6
						c0.5-0.3,1.1,0,1.2,0.6l0.4,1.7C594.7,566.2,594.4,567,593.8,567.4z"/>
				</g>
				<path class="st12" d="M487.5,457.2L487.5,457.2c-2.6,1.6-4,4.7-3.3,7.8l0.3,1.3c0.5,2.3,3.1,3.5,5.1,2.3l0,0
					c2.6-1.6,3.9-4.7,3.3-7.8l-0.3-1.4C492,457.1,489.4,456,487.5,457.2z"/>
				<path class="st12" d="M529.2,616.9L529.2,616.9c-2.3,1.4-3.5,4.2-2.9,6.9l0.3,1.2c0.5,2.1,2.7,3.1,4.5,2l0,0
					c2.3-1.4,3.5-4.2,2.9-6.9l-0.3-1.2C533.1,616.8,530.9,615.8,529.2,616.9z"/>
				<path class="st12" d="M547.4,606L547.4,606c-2.3,1.4-3.5,4.2-2.9,6.9l0.3,1.2c0.5,2.1,2.7,3.1,4.5,2v0c2.3-1.4,3.5-4.2,2.9-6.9
					l-0.3-1.2C551.4,605.9,549.2,604.9,547.4,606z"/>
				<path class="st12" d="M563.8,596.2L563.8,596.2c-2.3,1.4-3.5,4.2-2.9,6.9l0.3,1.2c0.5,2.1,2.7,3.1,4.5,2l0,0
					c2.3-1.4,3.5-4.2,2.9-6.9l-0.3-1.2C567.8,596.1,565.6,595.1,563.8,596.2z"/>
				<path class="st12" d="M579.8,586.7L579.8,586.7c-2.3,1.4-3.5,4.2-2.9,6.9l0.3,1.2c0.5,2.1,2.7,3.1,4.5,2l0,0
					c2.3-1.4,3.5-4.2,2.9-6.9l-0.3-1.2C583.8,586.7,581.6,585.7,579.8,586.7z"/>
				<path class="st12" d="M594.1,578.2L594.1,578.2c-2.3,1.4-3.5,4.2-2.9,6.9l0.3,1.2c0.5,2.1,2.7,3.1,4.5,2h0
					c2.3-1.4,3.5-4.2,2.9-6.9l-0.3-1.2C598.1,578.2,595.9,577.2,594.1,578.2z"/>
			</g>
		</g>
		<polygon class="st11" points="186.8,850.5 86.8,421 184,365 284,794.5 		"/>
		<g>
			<path class="st12" d="M191.3,484.3l-56.8,33c-0.9,0.5-2,0-2.2-1l-0.7-3c-0.3-1.3,0.3-2.6,1.4-3.3l56.8-33c0.9-0.5,2,0,2.2,1
				l0.7,3C193.1,482.3,192.5,483.6,191.3,484.3z"/>
			<path class="st12" d="M125.1,516.4L125.1,516.4c-1.1,0.6-1.7,1.9-1.4,3.2l0.1,0.5c0.2,0.9,1.3,1.4,2.1,0.9l0,0
				c1.1-0.6,1.7-1.9,1.4-3.2l-0.1-0.6C127,516.3,125.9,515.9,125.1,516.4z"/>
			<path class="st12" d="M195.7,503.4l-56.8,33c-0.9,0.5-2,0-2.2-1l-0.7-3c-0.3-1.3,0.3-2.6,1.4-3.3l56.8-33c0.9-0.5,2,0,2.2,1
				l0.7,3C197.5,501.4,196.9,502.7,195.7,503.4z"/>
			<path class="st12" d="M129.5,535.5L129.5,535.5c-1.1,0.6-1.7,1.9-1.4,3.2l0.1,0.5c0.2,0.9,1.3,1.4,2.1,0.9l0,0
				c1.1-0.6,1.7-1.9,1.4-3.2l-0.1-0.6C131.4,535.4,130.3,535,129.5,535.5z"/>
			<path class="st12" d="M200.2,522.5l-56.8,33c-0.9,0.5-2,0-2.2-1l-0.7-3c-0.3-1.3,0.3-2.6,1.4-3.3l56.8-33c0.9-0.5,2,0,2.2,1
				l0.7,3C201.9,520.5,201.3,521.8,200.2,522.5z"/>
			<path class="st12" d="M133.9,554.6L133.9,554.6c-1.1,0.6-1.7,1.9-1.4,3.2l0.1,0.5c0.2,0.9,1.3,1.4,2.1,0.9l0,0
				c1.1-0.6,1.7-1.9,1.4-3.2l-0.1-0.6C135.8,554.6,134.7,554.1,133.9,554.6z"/>
			<path class="st12" d="M204.6,541.6l-56.8,33c-0.9,0.5-2,0-2.2-1l-0.7-3c-0.3-1.3,0.3-2.6,1.4-3.3l56.8-33c0.9-0.5,2,0,2.2,1
				l0.7,3C206.3,539.6,205.7,541,204.6,541.6z"/>
			<path class="st12" d="M138.3,573.7L138.3,573.7c-1.1,0.6-1.7,1.9-1.4,3.2l0.1,0.5c0.2,0.9,1.3,1.4,2.1,0.9l0,0
				c1.1-0.6,1.7-1.9,1.4-3.2l-0.1-0.6C140.2,573.7,139.1,573.2,138.3,573.7z"/>
			<path class="st12" d="M209,560.7l-56.8,33c-0.9,0.5-2,0-2.2-1l-0.7-3c-0.3-1.3,0.3-2.6,1.4-3.3l56.8-33c0.9-0.5,2,0,2.2,1l0.7,3
				C210.7,558.7,210.1,560.1,209,560.7z"/>
			<path class="st12" d="M142.7,592.8L142.7,592.8c-1.1,0.6-1.7,1.9-1.4,3.2l0.1,0.5c0.2,0.9,1.3,1.4,2.1,0.9l0,0
				c1.1-0.6,1.7-1.9,1.4-3.2l-0.1-0.6C144.6,592.8,143.5,592.3,142.7,592.8z"/>
			<path class="st12" d="M213.4,579.8l-56.8,33c-0.9,0.5-2,0-2.2-1l-0.7-3c-0.3-1.3,0.3-2.6,1.4-3.3l56.8-33c0.9-0.5,2,0,2.2,1
				l0.7,3C215.1,577.9,214.5,579.2,213.4,579.8z"/>
			<path class="st12" d="M147.1,611.9L147.1,611.9c-1.1,0.6-1.7,1.9-1.4,3.2l0.1,0.5c0.2,0.9,1.3,1.4,2.1,0.9h0
				c1.1-0.6,1.7-1.9,1.4-3.2l-0.1-0.6C149,611.9,147.9,611.4,147.1,611.9z"/>
			<path class="st12" d="M217.8,598.9l-56.8,33c-0.9,0.5-2,0-2.2-1l-0.7-3c-0.3-1.3,0.3-2.6,1.4-3.3l56.8-33c0.9-0.5,2,0,2.2,1
				l0.7,3C219.5,597,218.9,598.3,217.8,598.9z"/>
			<path class="st12" d="M151.5,631L151.5,631c-1.1,0.6-1.7,1.9-1.4,3.2l0.1,0.5c0.2,0.9,1.3,1.4,2.1,0.9l0,0
				c1.1-0.6,1.7-1.9,1.4-3.2l-0.1-0.6C153.4,631,152.3,630.5,151.5,631z"/>
			<path class="st12" d="M222.2,618.1l-56.8,33c-0.9,0.5-2,0-2.2-1l-0.7-3c-0.3-1.3,0.3-2.6,1.4-3.3l56.8-33c0.9-0.5,2,0,2.2,1
				l0.7,3C223.9,616.1,223.3,617.4,222.2,618.1z"/>
			<path class="st12" d="M155.9,650.1L155.9,650.1c-1.1,0.6-1.7,1.9-1.4,3.2l0.1,0.5c0.2,0.9,1.3,1.4,2.1,0.9v0
				c1.1-0.6,1.7-1.9,1.4-3.2l-0.1-0.6C157.8,650.1,156.7,649.7,155.9,650.1z"/>
			<path class="st12" d="M226.6,637.2l-56.8,33c-0.9,0.5-2,0-2.2-1l-0.7-3c-0.3-1.3,0.3-2.6,1.4-3.3l56.8-33c0.9-0.5,2,0,2.2,1
				l0.7,3C228.3,635.2,227.7,636.5,226.6,637.2z"/>
			<path class="st12" d="M160.3,669.3L160.3,669.3c-1.1,0.6-1.7,1.9-1.4,3.2l0.1,0.5c0.2,0.9,1.3,1.4,2.1,0.9l0,0
				c1.1-0.6,1.7-1.9,1.4-3.2l-0.1-0.6C162.2,669.2,161.1,668.8,160.3,669.3z"/>
			<path class="st12" d="M231,656.3l-56.8,33c-0.9,0.5-2,0-2.2-1l-0.7-3c-0.3-1.3,0.3-2.6,1.4-3.3l56.8-33c0.9-0.5,2,0,2.2,1l0.7,3
				C232.7,654.3,232.1,655.6,231,656.3z"/>
			<path class="st12" d="M164.7,688.4L164.7,688.4c-1.1,0.6-1.7,1.9-1.4,3.2l0.1,0.5c0.2,0.9,1.3,1.4,2.1,0.9h0
				c1.1-0.6,1.7-1.9,1.4-3.2l-0.1-0.6C166.6,688.3,165.5,687.9,164.7,688.4z"/>
			<path class="st12" d="M235.4,675.4l-56.8,33c-0.9,0.5-2,0-2.2-1l-0.7-3c-0.3-1.3,0.3-2.6,1.4-3.3l56.8-33c0.9-0.5,2,0,2.2,1
				l0.7,3C237.1,673.4,236.5,674.7,235.4,675.4z"/>
			<path class="st12" d="M169.1,707.5L169.1,707.5c-1.1,0.6-1.7,1.9-1.4,3.2l0.1,0.5c0.2,0.9,1.3,1.4,2.1,0.9l0,0
				c1.1-0.6,1.7-1.9,1.4-3.2l-0.1-0.6C171,707.5,169.9,707,169.1,707.5z"/>
			<path class="st12" d="M239.8,694.5l-56.8,33c-0.9,0.5-2,0-2.2-1l-0.7-3c-0.3-1.3,0.3-2.6,1.4-3.3l56.8-33c0.9-0.5,2,0,2.2,1
				l0.7,3C241.5,692.5,240.9,693.8,239.8,694.5z"/>
			<path class="st12" d="M173.5,726.6L173.5,726.6c-1.1,0.6-1.7,1.9-1.4,3.2l0.1,0.5c0.2,0.9,1.3,1.4,2.1,0.9l0,0
				c1.1-0.6,1.7-1.9,1.4-3.2l-0.1-0.6C175.4,726.6,174.3,726.1,173.5,726.6z"/>
			<path class="st12" d="M244.2,713.6l-56.8,33c-0.9,0.5-2,0-2.2-1l-0.7-3c-0.3-1.3,0.3-2.6,1.4-3.3l56.8-33c0.9-0.5,2,0,2.2,1
				l0.7,3C245.9,711.6,245.3,713,244.2,713.6z"/>
			<path class="st12" d="M177.9,745.7L177.9,745.7c-1.1,0.6-1.7,1.9-1.4,3.2l0.1,0.5c0.2,0.9,1.3,1.4,2.1,0.9l0,0
				c1.1-0.6,1.7-1.9,1.4-3.2l-0.1-0.6C179.8,745.7,178.7,745.2,177.9,745.7z"/>
		</g>
		<g>
			<polygon class="st12" points="103.7,493.5 103.5,492.6 200.7,436.5 200.9,437.4 			"/>
		</g>
		<path class="st12" d="M170.5,397.9L102,437.4c-0.9,0.5-2,0-2.2-1l-0.7-3c-0.3-1.3,0.3-2.6,1.4-3.3l68.5-39.5c0.9-0.5,2,0,2.2,1
			l0.7,3C172.2,395.9,171.6,397.2,170.5,397.9z"/>
		<path class="st12" d="M169.7,419.6l-63.4,36.6c-0.9,0.5-2,0-2.2-1l-0.7-3c-0.3-1.3,0.3-2.6,1.4-3.3l63.4-36.6c0.9-0.5,2,0,2.2,1
			l0.7,3C171.4,417.7,170.9,419,169.7,419.6z"/>
		<path class="st12" d="M173.4,435.4L110,472c-0.9,0.5-2,0-2.2-1l-0.7-3c-0.3-1.3,0.3-2.6,1.4-3.3l63.4-36.6c0.9-0.5,2,0,2.2,1
			l0.7,3C175.2,433.4,174.6,434.7,173.4,435.4z"/>
		<path class="st12" d="M186.9,465.2l-56.8,33c-0.9,0.5-2,0-2.2-1l-0.7-3c-0.3-1.3,0.3-2.6,1.4-3.3l56.8-33c0.9-0.5,2,0,2.2,1l0.7,3
			C188.7,463.2,188.1,464.5,186.9,465.2z"/>
		<polygon class="st13" points="637.9,102.7 86.8,421 82,400.3 633.1,82 		"/>
		<path class="st11" d="M90.8,401.1l8.5-0.7c0.3,0,0.5,0.2,0.6,0.5c0,0.2,0,0.3-0.1,0.4l-2.7,2.8l0.1,3.8c0,0.3-0.2,0.5-0.5,0.5
			c-0.2,0-0.3-0.1-0.4-0.2l-5.8-6.3c-0.2-0.2-0.2-0.5,0-0.7C90.6,401.2,90.7,401.1,90.8,401.1z"/>
		<path class="st11" d="M119.9,395.7l1-2.1c0.3-0.6,0.2-1.3-0.2-1.9l-2.7-3.6l-0.1,0.1c0,0,0,0,0,0c-0.2,0.1-0.4,0.3-0.5,0.5
			c-0.1,0.2-0.1,0.5,0,0.7l0.4,0.8c0,0.1,0,0.2-0.1,0.2c0,0-0.1,0-0.1,0l-4.5-2.1c-0.3-0.1-0.7,0-0.8,0.2c-0.1,0.3,0,0.6,0.3,0.8
			c0.5,0.2,0.9,0.5,1.4,0.7c1.1,0.5,2,0.9,2.1,1c0.1,0,0.1,0.1,0.1,0.2c0,0,0,0,0,0l0,0c0,0.1-0.1,0.1-0.2,0.1c0,0,0,0,0,0
			c-0.1,0-1-0.5-2.1-1c-0.5-0.2-0.9-0.5-1.4-0.7c0,0,0,0,0,0c0,0,0,0,0,0c-0.4-0.2-0.7-0.3-1-0.5c-0.3-0.1-0.7,0-0.8,0.2l0,0
			c-0.1,0.3,0,0.6,0.3,0.8l4.5,2.2c0.1,0,0.1,0.1,0.1,0.2c0,0.1-0.1,0.1-0.2,0.1l-3.9-1.9c-0.3-0.1-0.7,0-0.8,0.2
			c-0.1,0.3,0,0.6,0.3,0.8l3.9,1.9c0.1,0,0.1,0.1,0.1,0.2c0,0.1-0.1,0.1-0.2,0.1l-2.3-1.1c-0.3-0.1-0.7,0-0.8,0.3l0,0
			c-0.1,0.3,0,0.6,0.3,0.8c1.3,0.6,3.5,1.7,5.5,2.6C118.3,397,119.4,396.6,119.9,395.7z"/>
		<path class="st11" d="M136.6,375.7l-0.8,0.5l-5.4,3.1l-0.8,0.5c-0.2,0.1-0.3,0.4-0.2,0.6l0.6,1.2c0.1,0.2,0.4,0.3,0.6,0.2l0.4-0.2
			c0.2-0.1,0.3-0.4,0.2-0.6c-0.1-0.2,0-0.5,0.2-0.6l1.3-0.8c0.2-0.1,0.5-0.1,0.6,0.2l2.9,5.2c0.1,0.2,0,0.5-0.2,0.6l-0.6,0.3
			c-0.2,0.1-0.3,0.4-0.2,0.6l0.2,0.4c0.1,0.2,0.4,0.3,0.6,0.2l1-0.6l1.2-0.7l1-0.6c0.2-0.1,0.3-0.4,0.2-0.6l-0.2-0.4
			c-0.1-0.2-0.4-0.3-0.6-0.2l-0.6,0.3c-0.2,0.1-0.5,0.1-0.6-0.2l-2.9-5.2c-0.1-0.2,0-0.5,0.2-0.6l1.3-0.8c0.2-0.1,0.5-0.1,0.6,0.2
			c0.1,0.2,0.4,0.3,0.6,0.2l0.4-0.2c0.2-0.1,0.3-0.4,0.2-0.6l-0.6-1.2C137.1,375.6,136.8,375.6,136.6,375.7z"/>
		<path class="st12" d="M120.7,497.2L120.7,497.2c-1.1,0.6-1.7,1.9-1.4,3.2l0.1,0.5c0.2,0.9,1.3,1.4,2.1,0.9h0
			c1.1-0.6,1.7-1.9,1.4-3.2l-0.1-0.6C122.6,497.2,121.5,496.8,120.7,497.2z"/>
		<path class="st11" d="M593,113.1L593,113.1c-1.8,1.1-2.8,3.3-2.3,5.4l0.2,0.9c0.4,1.6,2.1,2.4,3.5,1.6v0c1.8-1.1,2.7-3.3,2.3-5.4
			l-0.2-1C596.2,113.1,594.4,112.3,593,113.1z"/>
		<path class="st11" d="M607.9,104.5L607.9,104.5c-1.8,1.1-2.8,3.3-2.3,5.4l0.2,0.9c0.4,1.6,2.1,2.4,3.5,1.6l0,0
			c1.8-1.1,2.7-3.3,2.3-5.4l-0.2-1C611.1,104.5,609.3,103.7,607.9,104.5z"/>
		<path class="st11" d="M622.8,95.9L622.8,95.9c-1.8,1.1-2.8,3.3-2.3,5.4l0.2,0.9c0.4,1.6,2.1,2.4,3.5,1.6l0,0
			c1.8-1.1,2.7-3.3,2.3-5.4l-0.2-1C626,95.9,624.2,95.1,622.8,95.9z"/>
		<path class="st11" d="M398.1,232.4l-31.6,19c-0.5,0.3-1.1,0-1.2-0.6l-0.4-1.7c-0.2-0.7,0.2-1.5,0.8-1.9l31.6-19
			c0.5-0.3,1.1,0,1.2,0.6l0.4,1.7C399,231.3,398.7,232,398.1,232.4z"/>
		<path class="st11" d="M360.9,254.7l-10.3,6.4c-0.5,0.3-1.1,0-1.2-0.6l-0.4-1.7c-0.2-0.7,0.2-1.5,0.8-1.9l10.3-6.4
			c0.5-0.3,1.1,0,1.2,0.6l0.4,1.7C361.8,253.5,361.5,254.3,360.9,254.7z"/>
	</g>
	<g>
		<path class="st14" d="M771.7,333.5l-13.1-7.5c-0.1,0-0.1-0.1-0.2-0.1l-0.1-0.1l0,0c-2.9-1.5-6.5-1.7-9.6,0.2l-57.8,34.1
			c-10.1,6-16.3,16.8-16.3,28.5v66.1c0,3.8,2.2,6.8,5.2,8.3l0,0l14.1,8l6.8-15.4l46.4-27.4c10.1-6,16.4-16.9,16.4-28.7v-64.9
			L771.7,333.5z"/>
		<path class="st15" d="M758.6,326c-0.1,0-0.1-0.1-0.2-0.1l-0.1-0.1l0,0c-2.9-1.5-6.5-1.7-9.6,0.2l-9.1,5.4l14.3,8.2l9.6,3.5v-8.4
			l8.3-1.1L758.6,326z"/>
		<path class="st16" d="M777.8,407.7v-65.1c0-7.6-8.3-12.3-14.8-8.4l-57.8,34.1c-10.1,6-16.3,16.8-16.3,28.5v66.1
			c0,7.2,7.8,11.7,14.1,8l58.4-34.5C771.5,430.4,777.8,419.5,777.8,407.7z"/>
		<g>
			<path class="st11" d="M768.2,382.3c0,0-10.2,30.4-34.9,44.7c-25.7,14.8-34.9-4.4-34.9-4.4s8.6-29.5,34.9-44.7
				C758.6,363.3,768.2,382.3,768.2,382.3z"/>
			
				<linearGradient id="SVGID_5_" gradientUnits="userSpaceOnUse" x1="733.3422" y1="641.1847" x2="733.3422" y2="606.7909" gradientTransform="matrix(1 -0.5774 0 1 0 201.8366)">
				<stop  offset="0" style="stop-color:#66ECFC"/>
				<stop  offset="1" style="stop-color:#CEE4B5"/>
			</linearGradient>
			<path class="st17" d="M750.5,392.5c0,9.5-7.7,21.6-17.2,27.1c-9.5,5.5-17.2,2.2-17.2-7.3s7.7-21.6,17.2-27.1
				C742.8,379.7,750.5,383,750.5,392.5z"/>
			
				<ellipse transform="matrix(0.6011 -0.7992 0.7992 0.6011 -18.1234 748.47)" class="st11" cx="740.7" cy="392.4" rx="7" ry="3.9"/>
			
				<linearGradient id="SVGID_6_" gradientUnits="userSpaceOnUse" x1="733.3422" y1="633.6611" x2="733.3422" y2="614.3145" gradientTransform="matrix(1 -0.5774 0 1 0 201.8366)">
				<stop  offset="0" style="stop-color:#19056D"/>
				<stop  offset="1" style="stop-color:#65779C"/>
			</linearGradient>
			<path class="st18" d="M743,396.8c0,5.3-4.3,12.2-9.7,15.3c-5.3,3.1-9.7,1.3-9.7-4.1c0-5.3,4.3-12.2,9.7-15.3
				C738.7,389.7,743,391.5,743,396.8z"/>
		</g>
		<path class="st19" d="M763,334.2l-9.1,5.4v19.7c0,9.1,9.9,14.7,17.7,10.1l6.2-3.7v-23.1C777.8,335,769.5,330.3,763,334.2z"/>
	</g>
	<g>
		<path class="st20" d="M141.9,433.1l-19.1-10.9c-0.1-0.1-0.2-0.1-0.3-0.2l-0.2-0.1l0,0c-4.1-2.2-9.4-2.5-14,0.3l-83.9,49.6
			c-14.6,8.6-23.6,24.4-23.6,41.4v95.9c0,5.5,3.2,9.9,7.5,12.1l0,0l20.5,11.6l9.9-22.3l67.4-39.8c14.7-8.7,23.8-24.5,23.8-41.6
			v-94.3L141.9,433.1z"/>
		<path class="st21" d="M150.7,540.8v-94.5c0-11-12-17.9-21.5-12.3l-83.9,49.6c-14.6,8.6-23.6,24.4-23.6,41.4l0,95.9
			c0,10.5,11.4,17,20.4,11.7l84.9-50.1C141.6,573.7,150.7,557.9,150.7,540.8z"/>
		<g>
			<ellipse transform="matrix(0.5 -0.866 0.866 0.5 -418.6996 341.2142)" class="st11" cx="86.2" cy="533.2" rx="50.2" ry="28.4"/>
			<polygon class="st21" points="75.4,523.3 75.4,557.6 104,524.1 			"/>
		</g>
		<path class="st22" d="M121.5,553.7c-13.1,7.7-21.1,21.8-21.1,37v7.4l26.5-15.7c14.7-8.7,23.8-24.5,23.8-41.6v-4.3L121.5,553.7z"/>
	</g>
	<g>
		<path class="st23" d="M239.7,523.4l-17.1-9.8c-0.1,0-0.2-0.1-0.3-0.1l-0.1-0.1l0,0c-3.7-2-8.4-2.2-12.5,0.2L134.5,558
			c-13.1,7.7-21.1,21.8-21.1,37V681c0,4.9,2.8,8.9,6.7,10.8l0,0l18.4,10.4l8.8-20l60.4-35.7c13.2-7.8,21.3-22,21.3-37.3v-84.4
			L239.7,523.4z"/>
		<path class="st13" d="M247.6,619.8v-84.6c0-9.9-10.7-16-19.3-11l-75.1,44.4c-13.1,7.7-21.1,21.8-21.1,37v85.9
			c0,9.4,10.2,15.2,18.3,10.4l76-44.9C239.5,649.3,247.6,635.1,247.6,619.8z"/>
		<g>
			<path class="st11" d="M197.6,629.3l-23.1,13.4v-2.3c1.1-0.7,2.3-1.6,3.8-2.8c1.5-1.1,2.2-2,2.2-2.4c0-0.2,0-0.3,0-0.5
				c0-0.2-0.1-0.4-0.3-0.7l-3.6-6.7l-14.7,8.5c-0.3,1-0.7,2.2-1.1,3.5c-0.4,1.3-0.8,2.5-1.1,3.5c-0.4,1.3-0.6,2.3-0.7,2.8
				c-0.1,0.5-0.1,0.9-0.1,1.1c0,0.6,0.5,0.9,1.4,0.8c1-0.1,2.6-0.7,4.8-1.8v2.3L147.8,658v-2.3c0.7-0.4,1.4-1,2.2-1.6
				c0.8-0.6,1.5-1.3,2-1.8c0.8-1,1.5-1.9,2.1-3c0.6-1,1-2.1,1.4-3.3c2.3-6.9,4.6-13.9,7-20.9c2.3-7,4.9-14.7,7.7-23.1l6-3.5
				c3.9,7.4,7,13.2,9.2,17.5c2.2,4.3,4.1,7.8,5.7,10.6c0.3,0.4,0.6,0.8,1,1.1c0.4,0.3,1,0.4,1.7,0.4c0.6,0,1.2-0.1,1.9-0.4
				c0.7-0.3,1.4-0.6,2-0.9V629.3z M175.3,625l-6.1-11.8l-6.1,18.8L175.3,625z"/>
			<path class="st11" d="M231.9,608.9c-0.9,0.9-1.9,1.8-3.1,2.8c-1.2,1-2.5,1.9-3.8,2.7c-2.4,1.4-4.3,2.1-5.4,2
				c-1.2-0.1-1.9-0.6-2.4-1.8l-0.2,0.1c-0.7,1.1-1.3,2-2,2.9c-0.6,0.8-1.3,1.6-2,2.4c-0.9,1-1.8,1.8-2.7,2.6
				c-0.9,0.7-2.1,1.5-3.6,2.4c-2.3,1.3-4.3,1.8-5.9,1.4c-1.6-0.4-2.5-1.8-2.5-4c0-1.3,0.2-2.5,0.5-3.6c0.4-1.1,0.9-2.2,1.5-3.3
				c0.6-1,1.3-1.9,2.1-2.8c0.8-0.9,1.7-1.8,2.6-2.7c1.8-1.7,4-3.6,6.5-5.8c2.5-2.2,4.4-3.9,5.5-5.1v-2.9c0-0.5,0-1.1-0.1-1.9
				c-0.1-0.8-0.2-1.4-0.5-1.8c-0.3-0.5-0.7-0.8-1.3-0.9c-0.6-0.1-1.4,0.1-2.4,0.7c-0.9,0.5-1.6,1.1-2.2,1.6
				c-0.6,0.6-1.1,1.1-1.4,1.6c0.1,0.4,0.2,0.9,0.5,1.5c0.3,0.7,0.4,1.4,0.4,2.1c0,0.3-0.1,0.8-0.3,1.4c-0.2,0.6-0.4,1.2-0.8,1.7
				c-0.5,0.7-1,1.3-1.5,1.8c-0.6,0.5-1.4,1.2-2.6,1.8c-1.7,1-3,1.3-3.8,1c-0.9-0.3-1.3-1.1-1.3-2.4c0-1.1,0.4-2.4,1.3-3.8
				c0.9-1.4,2-2.8,3.2-4.1c1.3-1.3,2.7-2.6,4.3-3.9c1.6-1.3,3.2-2.3,4.5-3.1c1.9-1.1,3.7-2,5.3-2.7c1.6-0.7,3.1-1.1,4.4-1.1
				c1.2,0,2.2,0.4,2.9,1.3c0.7,0.9,1.1,2.4,1.1,4.6c0,2.3,0,5-0.1,8.1c-0.1,3.1-0.1,5.2-0.1,6.2c0,0.9,0.1,1.5,0.4,1.9
				c0.3,0.4,0.7,0.5,1.2,0.5c0.3,0,0.9-0.2,1.6-0.6c0.7-0.4,1.4-0.8,2-1.1V608.9z M217,601.8c-1.1,1-2.2,2.1-3.3,3.2
				c-1.1,1.1-2,2.2-2.7,3.1c-0.7,1-1.3,2-1.7,3.2c-0.4,1.1-0.6,2.3-0.6,3.4c0,1.6,0.4,2.5,1.1,2.8s1.6,0.1,2.6-0.5
				c1.1-0.6,2-1.4,2.7-2.2c0.7-0.9,1.3-1.8,1.9-2.7L217,601.8z"/>
		</g>
	</g>
	<g>
		<g>
			<path class="st24" d="M158.7,952.9C158.7,952.9,158.6,952.9,158.7,952.9c-0.6,0-1-0.5-1-1c0-1.6,4.3-161.1,6.4-200.1
				c2.8-52,17.6-59.2,18.2-59.5c0.5-0.2,1.1,0,1.3,0.5c0.2,0.5,0,1.1-0.5,1.3c-0.1,0.1-14.3,7.4-17,57.8
				c-2.1,39-6.3,198.5-6.4,200.1C159.7,952.5,159.2,952.9,158.7,952.9z"/>
		</g>
		<g>
			<path class="st24" d="M163,951.3C163,951.3,163,951.3,163,951.3c-0.6-0.1-1.1-0.5-1-1.1l2.6-27c1.2-12.6,5.5-24.8,12.3-35.4
				l12.8-19.7c0.3-0.5,0.9-0.6,1.4-0.3c0.5,0.3,0.6,0.9,0.3,1.4l-12.8,19.7c-6.7,10.3-10.8,22.2-12,34.5l-2.6,27
				C164,950.9,163.5,951.3,163,951.3z"/>
		</g>
		<g>
			<path class="st24" d="M161.1,951.3C161.1,951.3,161.1,951.3,161.1,951.3c-0.6-0.1-1-0.5-1-1.1l8.6-101c1.7-19.7,8.3-38.9,19-55.6
				l37.6-58.1c0.3-0.5,0.9-0.6,1.4-0.3c0.5,0.3,0.6,0.9,0.3,1.4l-37.6,58.1c-10.6,16.3-17,35.2-18.7,54.6l-8.6,101
				C162.1,950.9,161.6,951.3,161.1,951.3z"/>
		</g>
		<g>
			<path class="st24" d="M154.5,951.3c-0.5,0-1-0.4-1-1l-1.3-91.4c-0.7-49.7-13.3-99.2-36.3-143.2c-0.3-0.5-0.1-1.1,0.4-1.4
				c0.5-0.3,1.1-0.1,1.4,0.4c23.2,44.3,35.9,94.1,36.6,144.1l1.3,91.4C155.5,950.8,155,951.3,154.5,951.3
				C154.5,951.3,154.5,951.3,154.5,951.3z"/>
		</g>
		<g>
			<path class="st24" d="M154.5,952.9c-0.5,0-1-0.4-1-1l-0.8-29.8c-0.7-24.9-5-49.4-12.8-73.1l-21.1-63.7c-0.2-0.5,0.1-1.1,0.6-1.3
				c0.5-0.2,1.1,0.1,1.3,0.6l21.1,63.7c7.9,23.8,12.2,48.6,12.9,73.6l0.8,29.8C155.5,952.4,155.1,952.9,154.5,952.9
				C154.5,952.9,154.5,952.9,154.5,952.9z"/>
		</g>
		<g>
			<path class="st24" d="M150.5,951.3c-0.5,0-1-0.4-1-0.9l-1.4-15.8c-1.9-21-9.1-41.4-20.8-59L92.8,824c-0.3-0.5-0.2-1.1,0.3-1.4
				c0.5-0.3,1.1-0.2,1.4,0.3l34.5,51.6c11.9,17.8,19.2,38.6,21.2,59.9l1.4,15.8C151.6,950.7,151.1,951.2,150.5,951.3
				C150.6,951.3,150.5,951.3,150.5,951.3z"/>
		</g>
		<g>
			<defs>
				<path id="XMLID_3_" d="M250.1,856.6c3.7-4.2,23.8,4.8,33.5,9.5c4.3-0.7,8.2-1.3,11.9-1.8c-6.9-3.2-14.3-7.1-10.9-7.6
					c3.9-0.6,14.1,3.5,20.6,6.3c9.7-1.2,15.2-1.7,15.2-1.7c-8.3-5.5-16.5-10.8-24.9-15.7c-4.6,2.7-12.4,7.1-13.8,6.1
					c-1.2-0.9,5.2-5.2,10-8.3c-5.8-3.2-11.7-6.2-17.9-8.8c-5.7,5.3-16.7,14.9-19.8,13.3c-3.2-1.6,7-11,12.8-16.1
					c-7.2-2.6-14.7-4.7-22.9-6.1c-14.4,10-5.7,24.8-10.4,26.1c-4.5,1.2-7-11,4.4-27c-6.6-0.9-13.6-1.4-21.1-1.4
					c-2.9,9,2.1,22.1-2.5,23.8c-5.1,1.9-5.4-2.5-2.3-23.7c-8.8,0.4-16,2.4-21.8,5.3c5.3,10.4,11.7,15.6,8.6,18.4
					c-3.3,2.9-10-2.9-12.8-15.9c-11.3,7.7-15.6,19.7-14,29.1c4.7-0.2,11.8-0.1,14.8,2.1c-5.2,1.7-3.8,11.9-0.3,12.4
					c6.2,0.7,12.4,1.1,18.9,1c-0.8-4.9-0.9-10.2,1.9-12.6c1.3-1.1,4.3,6.5,6.4,12.4c8.2-0.4,16.7-1.2,25.6-2.4
					c-8.1-4.5-16.2-10-13-12.6c4-3.3,14.5,5.5,20.8,11.5c6.9-1.1,14.1-2.3,21.6-3.6c2.2-0.4,4.2-0.8,6.3-1.1
					C262.2,864.4,247.2,859.8,250.1,856.6z"/>
			</defs>
			<use xlink:href="#XMLID_3_"  style="overflow:visible;fill:#62E9E5;"/>
			<clipPath id="XMLID_9_">
				<use xlink:href="#XMLID_3_"  style="overflow:visible;"/>
			</clipPath>
			<g class="st25">
				<path class="st26" d="M182.7,865.3l-0.9-1.8c36.5-18.4,102.2-14.3,145.6-1.2l-0.6,1.9C283.8,851.2,218.7,847.2,182.7,865.3z"/>
			</g>
		</g>
		<g>
			<defs>
				<path id="XMLID_1_" d="M106.4,826c4.6,2.5,7.1,4.8,8.4,6.7c3.3-7.1-2.6-11.8-23.1-12.3C81.9,807.8,66.5,800.8,51,804
					c9.5,4.1,29,12.7,17.3,9.1c-8.7-2.6-19.2-5-25.6-6.4c-4.4,2-8.7,4.9-12.8,8.9c-2.1,2-4,3.9-5.9,5.7c4.7-0.5,10.3-0.6,15.8,0.3
					c13.8,2.3,19.7,6.8,12.9,6c-5.9-0.7-18-3.7-36.1,1c-12.2,12.6-18.1,22-16.5,35.7c0.1,0.6,0.2,1.3,0.2,1.9
					c10.1-4,29.5-11,33.5-8.4c5.2,3.4-8.6,3.5-31.9,16.2c2.7,10,6.6,14.2,6.6,24.9c4.8-2.3,10.2-5,16-7.9c9-19.2,12-23,14.8-22.3
					c2.3,0.6-5.2,13.3-8.9,19.4c5-2.5,10.3-5.2,15.5-8c4.3-11.2,15-38.1,16.8-30.7c1.4,6,1,15.5,0.5,21.4c8.7-4.8,17-9.7,24.4-14.5
					c2.7-11.8-6.2-17.6-3.2-21.7c1.1-1.5,5.2-0.8,9,11.2c0.7,2.1,0.7,4.3,0.3,6.4c8.9-6.1,15.8-11.9,19.3-16.8
					C112.1,832.6,110,828.8,106.4,826z"/>
			</defs>
			<use xlink:href="#XMLID_1_"  style="overflow:visible;fill:#62E9E5;"/>
			<clipPath id="XMLID_10_">
				<use xlink:href="#XMLID_1_"  style="overflow:visible;"/>
			</clipPath>
			<g class="st27">
				<path class="st26" d="M9.5,899.4l-1.6-1.2c0.3-0.4,31.8-43.9,45.5-59.6c12.7-14.6,28.2-20.9,47.6-19.4l-0.2,2
					c-18.7-1.4-33.7,4.7-45.9,18.8C41.3,855.6,9.8,899,9.5,899.4z"/>
			</g>
			<path class="st28" d="M76.6,804.2c6.2,12,16.4,26,21,43.2l19.2-9.6C116.8,837.9,133.2,818.1,76.6,804.2z"/>
		</g>
		<g>
			<defs>
				<path id="XMLID_4_" d="M199.8,745.8c-4.6,2.5-7.1,4.8-8.4,6.7c-3.3-7.1,2.6-11.8,23.1-12.3c9.8-12.6,25.3-19.7,40.7-16.5
					c-9.5,4.1-29,12.7-17.3,9.1c8.7-2.6,19.2-5,25.6-6.4c4.4,2,8.7,4.9,12.8,8.9c2.1,2,4,3.9,5.9,5.7c-4.7-0.5-10.3-0.6-15.8,0.3
					c-13.8,2.3-19.7,6.8-12.9,6c5.9-0.7,18-3.7,36.1,1c12.2,12.6,18.1,22,16.5,35.7c-0.1,0.6-0.2,1.3-0.2,1.9
					c-10.1-4-29.5-11-33.5-8.4c-5.2,3.4,8.6,3.5,31.9,16.2c-2.7,10-6.6,14.2-6.6,24.9c-4.8-2.3-10.2-5-16-7.9
					c-9-19.2-12-23-14.8-22.3c-2.3,0.6,5.2,13.3,8.9,19.4c-5-2.5-10.3-5.2-15.5-8c-4.3-11.2-15-38.1-16.8-30.7
					c-1.4,6-1,15.5-0.5,21.4c-8.7-4.8-17-9.7-24.4-14.5c-2.7-11.8,6.2-17.6,3.2-21.7c-1.1-1.5-5.2-0.8-9,11.2
					c-0.7,2.1-0.7,4.3-0.3,6.4c-8.9-6.1-15.8-11.9-19.3-16.8C194.1,752.4,196.2,748.6,199.8,745.8z"/>
			</defs>
			<use xlink:href="#XMLID_4_"  style="overflow:visible;fill:#62E9E5;"/>
			<clipPath id="XMLID_11_">
				<use xlink:href="#XMLID_4_"  style="overflow:visible;"/>
			</clipPath>
			<g class="st29">
				<path class="st26" d="M299,822.4c-47.7-69.1-75.8-79.1-90.9-84.5c-0.9-0.3-1.8-0.6-2.6-0.9l0.7-1.9c0.8,0.3,1.7,0.6,2.6,0.9
					c15.3,5.4,43.8,15.6,91.8,85.2L299,822.4z"/>
			</g>
		</g>
		<g>
			<defs>
				<path id="XMLID_5_" d="M116.8,710.5c0,0,3.7-2.8,6.5-7.1c-2.8-3.4-6.9-6.7-12.7-9.5c0.1,10-5.2,12.8-5.2,12.8s-0.2-8-0.1-15.1
					c-7.9-3-18.2-5.4-31.6-6.4c1.4,1.7,2.7,3.8,3.9,6.3c3.8,8.1-2.6,0.5-8.8-6.6c-9.7-0.5-21-0.4-33.9,0.6
					c6.6,4.3,13.4,8.9,20.1,13.3c16.7-0.2,24.2,0.1,20.4,2.8c-2.1,1.5-7.4,2.2-12.2,2.5c4.1,2.6,8.1,5.1,12,7.5
					c3.6-0.5,8.7-1,13.8-1c14.9,0.2,1.2,3.7-6.2,5.4c5.2,2.9,10.1,5.5,14.6,7.6c2.5-1.1,5.5-2.7,6.6-4.5c1.6-2.7,2,2.8,0.2,7.4
					c8.7,3.2,13.4-1.1,15-7.1c4.7-0.3,11.5-2,7.1-11C124.4,709.6,121.1,711.2,116.8,710.5z"/>
			</defs>
			<use xlink:href="#XMLID_5_"  style="overflow:visible;fill:#62E9E5;"/>
			<clipPath id="XMLID_12_">
				<use xlink:href="#XMLID_5_"  style="overflow:visible;"/>
			</clipPath>
			<g class="st30">
				<path class="st26" d="M119.7,721.4c-5.8-13.5-42.9-28.2-90.3-35.8l0.3-2c48,7.7,85.8,22.9,91.8,37L119.7,721.4z"/>
			</g>
		</g>
		<g>
			<defs>
				<path id="XMLID_6_" d="M199.6,689.7c4.8-3.6,14.4,1.3,24,1.1c5.4-3.4,10.7-7.2,15.9-11.3c-14.8,1-15.4-4.7-9.1-6.1
					c4.9-1.1,11.4-1,19.5-2.9c7.8-6.1,14.3-10.1,24.9-13.5c-10.4-3.4-20.1-6.6-27.3-5.6c-1.8,1.7-4.3,3.7-7.6,6.3
					c-11.1,8.8-8.5,3.5-2.1-5c-8.9,1.1-17.4,2-25.4,3c0.7,4.7,1.3,9.9,0.8,12.8c-0.9,5-4.2-1.4-5.9-12.2c-9.1,1.1-17.4,2.2-24.8,3.8
					c6.7,5.1,14.5,11.7,10.9,13c-4.5,1.7-9.7-5-14.6-12.2c-5,1.2-9.6,2.6-13.6,4.4c7.1,4.9,21.3,15.5,15.9,18.7
					c-6.1,3.6-11.7-5.5-20.2-16.6c-26,19.5,0.7,39.4,13.5,36.4c1,3.8,3,11.6,13.4,11c10.4-0.6,12.4-10.6,26.7-18.5
					C205.2,695.4,195.7,692.6,199.6,689.7z"/>
			</defs>
			<use xlink:href="#XMLID_6_"  style="overflow:visible;fill:#62E9E5;"/>
			<clipPath id="XMLID_13_">
				<use xlink:href="#XMLID_6_"  style="overflow:visible;"/>
			</clipPath>
			<g class="st31">
				<path class="st26" d="M173.4,709.1l-2-0.4c5.5-27.3,60.7-49.6,106.8-52.5l0.1,2C233.1,661,178.6,683.4,173.4,709.1z"/>
			</g>
		</g>
		<g>
			<defs>
				<path id="XMLID_2_" d="M122.1,800.5c7.1,7.1,21.3,13.2,30.3-1.6c6.3-10.2,7.8-21.5-1.4-33.5l-5.6-1.4l3.5-4.9
					c0,0-20.8,1.3-24.6,7.9c0,0,0.1-7.4-7.6-15.8l-23.1-1.3c0,0,11.8,11,11.2,17.3c-0.6,6.3-16.5-15.9-16.5-15.9l-9.6,6.9
					c0,0,13.5,11.8,21.4,14.7s6.3,5.7-1.4,4.5s-21.6-10-21.6-10s-9.6,8.8-3.1,23.9c6.5,15.1,26.5,48,26.5,48s14.3-4.9,27.7-14.7
					c0,0-13.8-3.7-18.7-8c0,0,24.6,5.7,26.4,3.9s7.9-9.6,7.9-9.6S125.2,813.2,122.1,800.5z"/>
			</defs>
			<use xlink:href="#XMLID_2_"  style="overflow:visible;fill:#62E9E5;"/>
			<clipPath id="XMLID_14_">
				<use xlink:href="#XMLID_2_"  style="overflow:visible;"/>
			</clipPath>
			<g class="st32">
				<path class="st26" d="M101,842.1l-2-0.4c10.8-47.8,21.5-72.8,28-80.3l1.5,1.3C122.5,769.6,111.7,794.6,101,842.1z"/>
			</g>
		</g>
	</g>
	<g>
		<g>
			<defs>
				<polygon id="XMLID_7_" points="598,47.2 580.7,0 226.2,204.1 243.4,251.4 				"/>
			</defs>
			<use xlink:href="#XMLID_7_"  style="overflow:visible;fill:#F9C45A;"/>
			<clipPath id="XMLID_15_">
				<use xlink:href="#XMLID_7_"  style="overflow:visible;"/>
			</clipPath>
			<g class="st33">
				<g>
					
						<rect x="257.1" y="181.5" transform="matrix(0.937 -0.3494 0.3494 0.937 -50.2214 102.5424)" class="st34" width="4" height="18"/>
				</g>
				<g>
					
						<rect x="287.7" y="164.1" transform="matrix(0.937 -0.3494 0.3494 0.937 -42.0594 112.1204)" class="st34" width="4" height="17.2"/>
				</g>
				<g>
					
						<rect x="318.3" y="147.8" transform="matrix(0.9394 -0.3427 0.3427 0.9394 -36.4683 119.6477)" class="st34" width="4" height="30.4"/>
				</g>
				<g>
					
						<rect x="345" y="130.7" transform="matrix(0.9397 -0.3421 0.3421 0.9397 -26.8841 127.1521)" class="st34" width="4" height="18.1"/>
				</g>
				<g>
					
						<rect x="375.7" y="113.4" transform="matrix(0.9397 -0.3421 0.3421 0.9397 -18.9552 136.562)" class="st34" width="4" height="17.2"/>
				</g>
				<g>
					
						<rect x="406.3" y="97" transform="matrix(0.9394 -0.3427 0.3427 0.9394 -13.7579 146.7205)" class="st34" width="4" height="30.6"/>
				</g>
				<g>
					
						<rect x="433" y="79.9" transform="matrix(0.9378 -0.3472 0.3472 0.9378 -3.8557 156.5749)" class="st34" width="4" height="18.2"/>
				</g>
				<g>
					
						<rect x="463.8" y="62.8" transform="matrix(0.9378 -0.3472 0.3472 0.9378 4.1561 166.1575)" class="st34" width="4" height="17.4"/>
				</g>
				<g>
					
						<rect x="494.2" y="46.2" transform="matrix(0.9394 -0.3427 0.3427 0.9394 8.9524 173.8006)" class="st34" width="4" height="30.7"/>
				</g>
				<g>
					
						<rect x="520.9" y="29.2" transform="matrix(0.9394 -0.3427 0.3427 0.9394 18.5723 181.535)" class="st34" width="4" height="18.1"/>
				</g>
				<g>
					
						<rect x="551.7" y="12.1" transform="matrix(0.9394 -0.3428 0.3428 0.9394 26.4027 191.0567)" class="st34" width="4" height="17.5"/>
				</g>
			</g>
		</g>
	</g>
	<g>
		<ellipse class="st1" cx="145.6" cy="337.4" rx="22.5" ry="19.1"/>
		<linearGradient id="SVGID_7_" gradientUnits="userSpaceOnUse" x1="116.8408" y1="330.0318" x2="174.3977" y2="330.0318">
			<stop  offset="0" style="stop-color:#E7E7E7"/>
			<stop  offset="1" style="stop-color:#C8DCF0"/>
		</linearGradient>
		<ellipse class="st35" cx="145.6" cy="330" rx="28.8" ry="16.3"/>
		<ellipse class="st1" cx="145.6" cy="325.6" rx="28.8" ry="16.3"/>
		<linearGradient id="SVGID_8_" gradientUnits="userSpaceOnUse" x1="116.8408" y1="322.2946" x2="174.3977" y2="322.2946">
			<stop  offset="0" style="stop-color:#E7E7E7"/>
			<stop  offset="1" style="stop-color:#C8DCF0"/>
		</linearGradient>
		<ellipse class="st36" cx="145.6" cy="322.3" rx="28.8" ry="16.3"/>
		<ellipse class="st1" cx="145.6" cy="317.8" rx="28.8" ry="16.3"/>
		<linearGradient id="SVGID_9_" gradientUnits="userSpaceOnUse" x1="116.8408" y1="314.5573" x2="174.3977" y2="314.5573">
			<stop  offset="0" style="stop-color:#E7E7E7"/>
			<stop  offset="1" style="stop-color:#C8DCF0"/>
		</linearGradient>
		<ellipse class="st37" cx="145.6" cy="314.6" rx="28.8" ry="16.3"/>
		<ellipse class="st1" cx="145.6" cy="310.1" rx="28.8" ry="16.3"/>
		<linearGradient id="SVGID_10_" gradientUnits="userSpaceOnUse" x1="116.8408" y1="306.5224" x2="174.3977" y2="306.5224">
			<stop  offset="0" style="stop-color:#E7E7E7"/>
			<stop  offset="1" style="stop-color:#C8DCF0"/>
		</linearGradient>
		<ellipse class="st38" cx="145.6" cy="306.5" rx="28.8" ry="16.3"/>
		<ellipse class="st39" cx="145.6" cy="302.1" rx="28.8" ry="16.3"/>
		<ellipse class="st40" cx="145.6" cy="300.3" rx="28.8" ry="16.3"/>
		<linearGradient id="SVGID_11_" gradientUnits="userSpaceOnUse" x1="145.6192" y1="347.4039" x2="145.6192" y2="198.8139">
			<stop  offset="0" style="stop-color:#FEA6C0"/>
			<stop  offset="1" style="stop-color:#FABE32"/>
		</linearGradient>
		<path class="st41" d="M145.6,167.7c-43,0-60.1,36.1-60.1,59.2c0,23.1,9.6,34.7,20.9,48.2c11.3,13.5,8.4,20.7,10,26.6h0
			c1.8,8.2,14.2,14.5,29.1,14.5c15,0,27.3-6.3,29.1-14.5h0c1.6-5.9-1.3-13.1,10-26.6c11.3-13.5,20.9-25.1,20.9-48.2
			C205.7,203.9,188.6,167.7,145.6,167.7z"/>
		<ellipse class="st42" cx="145.6" cy="300.2" rx="27.6" ry="15.6"/>
		<g>
			<g>
				<g>
					<path class="st11" d="M138.2,306c-0.7,0-1.3-0.5-1.4-1.1l-13.7-55.2c-0.2-0.8,0.3-1.6,1.1-1.8c0.8-0.2,1.6,0.3,1.8,1.1
						l13.7,55.2c0.2,0.8-0.3,1.6-1.1,1.8C138.4,306,138.3,306,138.2,306z"/>
				</g>
				<g>
					<path class="st11" d="M153.1,296.9c-0.1,0-0.2,0-0.3,0c-0.8-0.1-1.3-0.9-1.2-1.7l12.2-68.4c0.1-0.8,0.9-1.3,1.7-1.2
						c0.8,0.1,1.3,0.9,1.2,1.7l-12.2,68.4C154.4,296.4,153.8,296.9,153.1,296.9z"/>
				</g>
				<g>
					<path class="st11" d="M124.3,258.5c-1.8,0-3.5-1-4.6-3c-3.4-5.8-1.8-19.4,7.2-25.6c3-2,5.4-2.8,7.3-2.9
						c2.9-5.7,7.7-9.8,13.8-11.3c2.3-0.6,4.4-0.3,6.1,0.8c2.5-3.5,5.8-6.7,9.3-7.8c2.4-0.7,4.7-0.4,6.7,0.9c1.8,1.2,3,4,3.1,7.6
						c0.2,5.4-1.9,13.6-8.4,18.7c-0.6,0.5-1.6,0.4-2.1-0.3c-0.5-0.6-0.4-1.6,0.3-2.1c5.3-4.1,7.5-11.1,7.3-16.2
						c-0.1-2.5-0.8-4.6-1.8-5.3c-1.3-0.8-2.6-1-4.2-0.5c-2.7,0.9-5.7,3.7-8.1,7c0.6,0.8,1.1,1.7,1.5,2.8c2.6,6.9,1.1,19.1-4,21.6
						c-2.5,1.2-4.1,0.5-4.9-0.3c-3.5-3.3-0.8-14,1-18.6c0.6-1.5,1.5-3.3,2.6-5.1c-1.5-0.9-3-0.5-3.7-0.4c-4.9,1.3-8.9,4.5-11.4,9
						c0.6,0.3,1.1,0.6,1.5,0.9c4.6,3.7,4.7,13.7,2.6,18.7c-1.9,4.6-4.8,4.3-5.6,4.1c-2.9-0.7-5.5-5.3-4.6-13.8
						c0.3-2.6,0.8-5,1.6-7.2c-1.3,0.3-2.7,1.1-4.3,2.1c-8,5.4-8.8,17.2-6.3,21.6c1.1,1.9,2.4,1.6,3.4,1.1c0.7-0.4,1.6-0.1,2,0.7
						c0.4,0.7,0.1,1.6-0.7,2C126.1,258.3,125.2,258.5,124.3,258.5z M136,230.4c-0.9,2.3-1.5,4.8-1.8,7.5c-0.7,6.9,1.2,10.3,2.4,10.6
						c0.6,0.2,1.5-0.8,2.1-2.3c1.7-4.1,1.5-12.6-1.8-15.2C136.6,230.7,136.3,230.5,136,230.4z M154.4,221.4
						c-0.7,1.3-1.4,2.6-1.9,3.8c-2.4,6-3.3,13.9-1.8,15.4c0.3,0.3,1.1,0,1.6-0.2c2.9-1.5,4.8-11.7,2.5-17.9
						C154.8,222.1,154.6,221.8,154.4,221.4z"/>
				</g>
			</g>
		</g>
	</g>
	<g>
		<path class="st23" d="M772.2,136.9l-19.1-10.9c-0.1-0.1-0.2-0.1-0.3-0.2l-0.2-0.1l0,0c-4.1-2.2-9.4-2.5-14,0.3l-83.9,49.6
			c-14.6,8.6-23.6,24.4-23.6,41.4v95.9c0,5.5,3.2,9.9,7.5,12.1l0,0l20.5,11.6l9.9-22.3l67.4-39.8c14.7-8.7,23.8-24.5,23.8-41.6
			v-94.3L772.2,136.9z"/>
		<path class="st13" d="M781,244.5V150c0-11-12-17.9-21.5-12.3l-83.9,49.6c-14.6,8.6-23.6,24.4-23.6,41.4v95.9
			c0,10.5,11.4,17,20.4,11.7l84.9-50.1C772,277.5,781,261.6,781,244.5z"/>
		<g>
			<path id="path0_fill" class="st43" d="M700.8,292.9c8.6-5,15.6-16,15.6-24.7v-15.6l-15.6,9c-8.6,5-15.6,16-15.6,24.7
				C685.2,294.9,692.2,297.9,700.8,292.9z"/>
			<path id="path1_fill" class="st44" d="M685.2,255c0-8.6,7-19.7,15.6-24.7l15.6-9v31.3l-15.6,9C692.2,266.6,685.2,263.7,685.2,255
				z"/>
			<path id="path1_fill_1_" class="st45" d="M685.2,223.8c0-8.6,7-19.7,15.6-24.7l15.6-9v31.3l-15.6,9
				C692.2,235.3,685.2,232.4,685.2,223.8z"/>
			<path id="path2_fill" class="st46" d="M716.5,190.1l15.6-9c8.6-5,15.6-2,15.6,6.6s-7,19.7-15.6,24.7l-15.6,9V190.1z"/>
			<path id="path3_fill" class="st47" d="M747.8,218.9c0,8.6-7,19.7-15.6,24.7c-8.6,5-15.6,2-15.6-6.6c0-8.6,7-19.7,15.6-24.7
				C740.7,207.3,747.8,210.3,747.8,218.9z"/>
		</g>
		<path class="st48" d="M781,226.4l-8.7,5.1c-12.7,7.5-20.5,21.1-20.5,35.8v22l5.4-3.2c14.7-8.7,23.8-24.5,23.8-41.6V226.4z"/>
	</g>
	<g>
		<path class="st49" d="M884,203l-16.5-9.4c-0.1,0-0.2-0.1-0.2-0.1l-0.1-0.1l0,0c-3.6-1.9-8.1-2.2-12.1,0.2l-72.7,42.9
			c-12.7,7.5-20.5,21.1-20.5,35.8v83.1c0,4.8,2.7,8.6,6.5,10.5l0,0l17.8,10.1l8.5-19.3l58.4-34.5c12.8-7.5,20.6-21.3,20.6-36.1
			v-81.7L884,203z"/>
		<path class="st50" d="M891.7,296.3v-81.9c0-9.6-10.4-15.5-18.6-10.6l-72.7,42.9c-12.7,7.5-20.5,21.1-20.5,35.8v83.1
			c0,9.1,9.9,14.7,17.7,10.1l73.5-43.4C883.8,324.8,891.7,311.1,891.7,296.3z"/>
		<g>
			<path class="st11" d="M806.2,289.1v25.3c0,7.4,1.8,11,10.1,6.2c8.2-4.7,10.1-10.3,10.1-17.7v-25.5l7.5-4.3v27.7
				c0,10.7-7.3,20.4-17.6,26.3c-10.2,5.9-17.6,4.7-17.6-6v-27.7L806.2,289.1z"/>
			<path class="st11" d="M847.7,265.1l9.7,9.5l10.1-21l8.4-4.8l-14.2,28.8l15.2,13.4l-9.1,5.3l-10.7-10.2l-10.9,22.6l-8.6,5l15.2-31
				l-14.2-12.5L847.7,265.1z"/>
		</g>
	</g>
</g>
</svg>
